<svg width="24" height="24" viewBox="0 0 24 24" fill="none" xmlns="http://www.w3.org/2000/svg">
<path d="M8.12545 13.2281C8.19954 13.2298 8.2728 13.2462 8.34062 13.2761C8.40834 13.306 8.47003 13.3485 8.52121 13.4019C8.57239 13.4555 8.61253 13.5192 8.63936 13.5883C8.66615 13.6574 8.67944 13.7313 8.67778 13.8054C8.67609 13.8795 8.65966 13.9527 8.62975 14.0206C8.5998 14.0884 8.55661 14.1499 8.50296 14.2011C8.47627 14.2266 8.44747 14.2496 8.4165 14.2693L8.31757 14.3193L7.85553 14.5172C7.20592 14.8066 6.28097 15.2212 5.14 15.2213C2.79457 15.2213 1.13155 16.7627 1.13155 18.8609C1.13282 19.9234 1.55503 20.9422 2.30633 21.6936C3.05782 22.4451 4.07723 22.8672 5.14 22.8684C5.99928 22.8683 6.69286 22.687 7.24077 22.3314C7.78771 21.9764 8.20587 21.4372 8.49815 20.6946L8.50296 20.684L8.57692 20.4852C8.64839 20.2537 8.71065 19.9257 8.75751 19.5121C8.81925 18.9669 8.8526 18.2915 8.8526 17.5324C8.85267 17.1774 9.03513 16.8809 9.27141 16.6275C9.50694 16.375 9.82084 16.1399 10.1234 15.9119L10.5307 15.5978C10.6542 15.4973 10.7618 15.4011 10.84 15.3125C10.9396 15.2005 11.0794 15.1322 11.229 15.1233C11.3788 15.1144 11.5261 15.1659 11.6383 15.2654C11.7503 15.365 11.8185 15.5049 11.8275 15.6545C11.8364 15.8042 11.7849 15.9515 11.6853 16.0637C11.4483 16.3307 11.1105 16.5851 10.8045 16.8148C10.635 16.9423 10.4161 17.1065 10.2406 17.2625C10.1526 17.3407 10.0812 17.4125 10.0331 17.4719C10.0094 17.5012 9.99484 17.5231 9.98703 17.5382C9.98045 17.5509 9.98196 17.5523 9.98319 17.5439C9.98298 18.0322 9.97002 18.7148 9.90923 19.3776C9.84918 20.0323 9.73952 20.6945 9.54037 21.1288L9.54133 21.1297C9.1721 22.0688 8.61439 22.7904 7.86994 23.2756C7.12634 23.7602 6.2108 23.9998 5.14 23.9999C2.30635 23.9999 0.000201476 21.6945 0 18.8609C0 16.0875 2.1822 14.0897 5.14 14.0897C6.03061 14.0896 6.7705 13.7622 7.39542 13.4846C7.56404 13.4079 7.73445 13.3353 7.90644 13.2665L7.90836 13.2655C7.97742 13.2388 8.05141 13.2264 8.12545 13.2281ZM2.9768 0.013537C3.08715 0.0383739 3.18756 0.0953469 3.26497 0.177794L14.593 12.2608C14.6231 12.2929 14.6498 12.3282 14.6717 12.3665L14.7265 12.4481C14.9731 12.7914 16.0886 14.0896 18.8608 14.0897C21.8186 14.0897 24.0008 16.0875 24.0008 18.8609C24.0006 21.6945 21.6944 23.9999 18.8608 23.9999C17.7898 23.9998 16.8739 23.7601 16.1289 23.2728C15.3832 22.7849 14.8237 22.0583 14.4498 21.1095C14.0845 20.3163 13.8188 18.9514 13.8187 17.8647C13.8187 17.3946 13.5053 16.8791 12.912 16.275C12.3251 15.6775 11.5072 15.0339 10.5768 14.302C7.11477 11.5789 2.28711 7.78928 2.28711 0.564904C2.28711 0.451537 2.32137 0.340724 2.38509 0.246955C2.44884 0.153196 2.53902 0.080222 2.64445 0.0385118C2.74997 -0.00321059 2.86609 -0.0113267 2.9768 0.013537ZM3.49935 2.08164C4.12007 7.7752 8.18574 10.9814 11.2761 13.4125C12.2771 14.2001 13.1906 14.9182 13.8514 15.6247C14.5117 16.3308 14.9503 17.0569 14.9503 17.8647C14.9503 18.8003 15.1664 19.8195 15.3922 20.4285L15.4892 20.6629L15.494 20.6735C15.7909 21.4266 16.2121 21.9712 16.76 22.3285C17.3088 22.6864 18.0017 22.8683 18.8608 22.8684C21.0707 22.8684 22.869 21.0714 22.8692 18.8609C22.8692 16.7634 21.2062 15.2213 18.8608 15.2213C15.3733 15.2211 13.9945 13.3981 13.7342 12.9975L3.49935 2.08164ZM19.0087 16.2299C20.5411 16.2299 21.7876 17.4763 21.7876 19.0088C21.7875 20.5411 20.5411 21.7877 19.0087 21.7877C17.4763 21.7877 16.2299 20.5411 16.2298 19.0088C16.2298 17.4763 17.4763 16.2299 19.0087 16.2299ZM4.99208 16.2289C6.52445 16.2289 7.77089 17.4755 7.771 19.0078C7.771 20.5403 6.52452 21.7868 4.99208 21.7868C3.45963 21.7868 2.21315 20.5403 2.21315 19.0078C2.21326 17.4755 3.4597 16.2289 4.99208 16.2289ZM19.0087 17.3614C18.1007 17.3614 17.3613 18.1002 17.3613 19.0088C17.3615 19.9173 18.1008 20.6562 19.0087 20.6562C19.9166 20.6562 20.6559 19.9173 20.6561 19.0088C20.6561 18.1002 19.9167 17.3614 19.0087 17.3614ZM4.99208 17.3604C4.08417 17.3604 3.34481 18.0993 3.3447 19.0078C3.3447 19.9164 4.0841 20.6552 4.99208 20.6552C5.90005 20.6552 6.63945 19.9164 6.63945 19.0078C6.63934 18.0993 5.89998 17.3604 4.99208 17.3604ZM12.0013 11.9342C12.4383 11.9342 12.7927 12.2888 12.7929 12.7257C12.7929 13.1627 12.4384 13.5172 12.0013 13.5172C11.5643 13.5172 11.2098 13.1627 11.2098 12.7257C11.21 12.2888 11.5644 11.9342 12.0013 11.9342ZM21.024 0.013537C21.1347 -0.0113267 21.2508 -0.00321058 21.3563 0.0385118C21.4618 0.0802219 21.5519 0.153196 21.6157 0.246955C21.6794 0.340725 21.7137 0.451538 21.7137 0.564904C21.7137 6.39208 18.6763 9.90294 16.053 12.2934L16.054 12.2944C15.9997 12.3474 15.9344 12.3888 15.8638 12.4164C15.7932 12.4439 15.7176 12.457 15.6419 12.4548C15.5662 12.4526 15.4917 12.4355 15.4229 12.4039C15.3541 12.3724 15.2924 12.3272 15.2413 12.2714C15.1902 12.2154 15.1504 12.1497 15.1251 12.0783C15.0999 12.0069 15.0898 11.931 15.0944 11.8554C15.0991 11.7797 15.1191 11.7052 15.153 11.6374C15.1868 11.5696 15.2337 11.5089 15.2913 11.4597C17.5289 9.41972 20.0348 6.56553 20.5033 2.07876L13.5046 9.54334C13.4021 9.65267 13.2606 9.71708 13.1108 9.722C12.9608 9.72688 12.8149 9.67186 12.7054 9.56927C12.596 9.46669 12.5317 9.32443 12.5268 9.17448C12.522 9.02474 12.5771 8.87944 12.6795 8.77008L20.7348 0.177794C20.8123 0.0950897 20.9134 0.0384217 21.024 0.013537Z" fill="#393028"/>
</svg>
