<svg viewBox="0 0 221 27" xmlns="http://www.w3.org/2000/svg" xmlns:xlink="http://www.w3.org/1999/xlink" width="221.000000" height="27.000000" fill="none">
  <path id="Vector" d="M2.46136 2.45461L2.46065 2.45533C1.48155 3.4298 0.971899 4.67677 0.71202 6.44243C0.449926 8.2232 0.448829 10.4745 0.448829 13.4294C0.448829 16.3843 0.449925 18.6357 0.712026 20.417C0.971906 22.1833 1.48159 23.4317 2.46101 24.4088C3.43787 25.3854 4.68826 25.8942 6.45826 26.1534C8.24339 26.4149 10.5003 26.416 13.4624 26.416C16.4245 26.416 18.6814 26.4149 20.4672 26.1534C22.2378 25.8942 23.4893 25.3858 24.4687 24.4088C25.4482 23.4316 25.9579 22.1844 26.2177 20.4188C26.4798 18.6381 26.4809 16.3867 26.4809 13.4294C26.4809 10.4721 26.4798 8.22071 26.2177 6.43999C25.9579 4.67446 25.4482 3.42718 24.4687 2.4501C23.4893 1.47552 22.239 0.968315 20.4692 0.709689C18.684 0.448818 16.427 0.447729 13.4624 0.447729C10.4978 0.447729 8.24095 0.448824 6.45645 0.710276C4.68718 0.96949 3.4383 1.47785 2.46136 2.45461ZM24.7861 2.13351C26.9297 4.27189 26.9297 7.54037 26.9297 13.4294C26.9297 19.3185 26.9297 22.5869 24.7861 24.7253C22.6425 26.8637 19.3611 26.8637 13.4624 26.8637C7.56376 26.8637 4.28239 26.8637 2.14363 24.7253C0 22.5869 4.59567e-21 19.3136 4.59567e-21 13.4294C4.59567e-21 7.54523 0 4.27189 2.14363 2.13838C4.28239 0 7.55888 0 13.4624 0C19.366 0 22.6425 0 24.7861 2.13351Z" fill="rgb(57,48,40)" fill-rule="evenodd" />
  <path id="Vector" d="M12.8949 21.9198C11.9442 21.1879 11.2431 20.0961 11.0173 18.8244L7.95117 18.8244L7.95117 5.44691C9.60307 6.27475 10.7796 8.11041 10.9222 10.006L11.3857 13.7613L11.1599 13.7253C10.6608 13.7253 10.2329 14.1932 10.2329 14.6612C10.2329 15.0931 10.5657 15.465 10.9935 15.561L11.5521 15.693C12.479 13.9293 13.0019 12.2017 13.0019 10.498C13.0019 8.96226 12.7999 7.43852 12.7761 5.87883C12.7761 5.18296 13.0375 4.54708 13.4654 4.05518C13.8932 4.55908 14.1547 5.18296 14.1547 5.87883C14.1547 7.43852 13.9288 8.97421 13.9288 10.498C13.9288 12.1896 14.4517 13.9293 15.3787 15.693L15.9373 15.561C16.3651 15.465 16.6979 15.0931 16.6979 14.6612C16.6979 14.1932 16.27 13.7253 15.7709 13.7253L15.5451 13.7613L16.0085 10.006C16.2344 8.11041 17.3277 6.27475 18.9795 5.44691L18.9795 18.8244L15.9135 18.8244C15.6877 20.0841 15.0222 21.2239 14.0358 21.9198C13.81 22.0877 13.608 22.2917 13.4773 22.5557C13.3228 22.2797 13.1208 22.0877 12.8949 21.9198ZM9.40103 14.2053C9.53179 13.7013 9.90019 13.2694 10.3518 13.0054L9.98333 9.91003C9.85264 8.95025 9.46044 8.08638 8.86627 7.37851L8.86627 14.1932L9.40103 14.1932L9.40103 14.2053ZM10.9578 17.8885C10.9578 17.4206 11.0292 16.9887 11.1242 16.5568L10.6964 16.4608C10.0665 16.2569 9.57933 15.7649 9.41297 15.1291L8.89001 15.1291L8.89001 17.8885L10.9578 17.8885ZM12.99 17.8885C12.99 17.3246 12.5622 16.8207 12.0036 16.7607C11.9086 17.1207 11.8373 17.4926 11.8373 17.8885L12.99 17.8885ZM12.99 18.8244L11.968 18.8244C12.1344 19.5563 12.4909 20.2161 12.99 20.792L12.99 18.8244ZM14.4399 15.9329C14.0477 15.201 13.6793 14.4332 13.4535 13.6414C13.2277 14.4452 12.8593 15.201 12.4671 15.9329C12.8593 16.0289 13.192 16.2928 13.4535 16.5928C13.7149 16.2928 14.0477 16.0289 14.4399 15.9329ZM15.0697 17.8885C15.0697 17.4926 14.9984 17.1207 14.9033 16.7607C14.3448 16.8328 13.917 17.3246 13.917 17.8885L15.0697 17.8885ZM14.939 18.8244L13.917 18.8244L13.917 20.792C14.4161 20.2161 14.7727 19.5563 14.939 18.8244ZM18.0407 17.8885L18.0407 15.1291L17.5178 15.1291C17.3514 15.7649 16.8642 16.2569 16.2344 16.4608L15.8065 16.5568C15.9016 16.9887 15.9729 17.4206 15.9729 17.8885L18.0407 17.8885ZM18.0407 14.2053L18.0407 7.39053C17.4465 8.08638 17.0187 8.95025 16.9236 9.92205L16.5552 13.0175C17.0187 13.2814 17.3752 13.7133 17.5059 14.2172L18.0407 14.2172L18.0407 14.2053Z" fill="rgb(57,48,40)" fill-rule="nonzero" />
  <path id="Subtract" d="M44.7632 26.8696C50.6782 26.8696 53.9664 26.8696 56.114 24.7321C58.2616 22.5946 58.2616 19.3239 58.2616 13.4348C58.2616 7.54569 58.2616 4.27492 56.114 2.13746C53.9664 0 50.6782 0 44.7632 0C38.848 0 35.5598 0 33.4122 2.13746C31.2647 4.27492 31.2646 7.54765 31.2646 13.4348C31.2646 19.3219 31.2647 22.5946 33.4122 24.7321C35.5598 26.8696 38.848 26.8696 44.7632 26.8696ZM47.1022 16.9958C46.5288 17.3825 45.8407 17.5757 45.0379 17.5757C43.9771 17.5757 43.1027 17.272 42.4146 16.6645C41.7265 16.057 41.3107 15.2147 41.1674 14.1377L46.6721 14.1377L46.6721 12.1495L41.2104 12.1495C41.4111 11.1554 41.8412 10.3822 42.5006 9.82988C43.16 9.24999 44.0058 8.96001 45.0379 8.96001C45.8407 8.96001 46.5288 9.16716 47.1022 9.58134C47.7042 9.96799 48.163 10.534 48.4783 11.2796L50.8436 10.4926C50.4709 9.33281 49.7542 8.43533 48.6934 7.80022C47.6612 7.16511 46.4428 6.84753 45.0379 6.84753C43.117 6.84753 41.5545 7.44126 40.3503 8.62865C39.1748 9.81604 38.5871 11.3625 38.5871 13.2679C38.5871 15.1732 39.1748 16.7197 40.3503 17.9071C41.5545 19.0945 43.117 19.6883 45.0379 19.6883C46.4428 19.6883 47.6612 19.3707 48.6934 18.7356C49.7542 18.1004 50.4709 17.2029 50.8436 16.0431L48.4783 15.2561C48.163 16.0017 47.7042 16.5816 47.1022 16.9958Z" fill="rgb(57,48,40)" fill-rule="evenodd" />
  <g id="Group 1972" opacity="0">
    <path id="Vector" d="M78.0268 21.6263C82.6942 21.6263 85.8898 18.3199 85.8898 13.465C85.8898 8.5264 82.7783 5.30371 78.0268 5.30371C73.3587 5.30371 70.2051 8.6101 70.2051 13.465C70.2051 18.4036 73.3167 21.6263 78.0268 21.6263ZM78.0268 18.8221C75.2929 18.8221 73.4849 16.7295 73.4849 13.465C73.4849 10.2005 75.2929 8.10783 78.0268 8.10783C80.7599 8.10783 82.568 10.2005 82.568 13.465C82.568 16.7295 80.7599 18.8221 78.0268 18.8221Z" fill="rgb(16,24,32)" fill-rule="nonzero" />
    <path id="Vector" d="M93.8699 21.6267C96.6872 21.6267 98.9164 20.2455 99.6313 17.8599L96.7713 16.981C96.2667 18.3203 95.2575 19.1155 93.8279 19.1155C91.8096 19.1155 90.5481 17.5669 90.5481 15.1395C90.5481 12.7121 91.8096 11.1635 93.8279 11.1635C95.2575 11.1635 96.2667 11.9587 96.7292 13.298L99.6313 12.419C98.9164 10.0335 96.6872 8.65234 93.8699 8.65234C90.0435 8.65234 87.4365 11.2472 87.4365 15.1395C87.4365 19.0318 90.0435 21.6267 93.8699 21.6267Z" fill="rgb(16,24,32)" fill-rule="nonzero" />
    <path id="Vector" d="M103.489 16.1021L112.867 16.1021C112.993 15.6835 112.993 15.4324 112.993 15.1395C112.993 11.2053 110.554 8.65234 106.812 8.65234C102.985 8.65234 100.462 11.289 100.462 15.1395C100.462 18.8644 102.69 21.6267 107.022 21.6267C109.545 21.6267 111.353 20.7059 112.488 19.4085L110.596 17.6088C109.839 18.4877 108.662 19.1155 107.022 19.1155C105.045 19.1155 103.784 17.9854 103.489 16.1021ZM106.812 11.0798C108.452 11.0798 109.587 12.0842 109.923 13.8839L103.531 13.8839C103.868 12.1261 105.045 11.0798 106.812 11.0798Z" fill="rgb(16,24,32)" fill-rule="nonzero" />
    <path id="Vector" d="M126.144 8.86084L115.59 8.86084L115.59 15.2643C115.59 18.3195 115.295 18.6962 114.286 18.6962L113.571 18.6962L113.571 21.4166C113.908 21.4585 114.412 21.5003 114.875 21.5003C117.567 21.5003 118.576 20.0773 118.576 15.5991L118.576 11.5812L123.117 11.5812L123.117 21.4166L126.144 21.4166L126.144 8.86084Z" fill="rgb(16,24,32)" fill-rule="nonzero" />
    <path id="Vector" d="M139.591 8.86084L133.662 8.86084C130.676 8.86084 128.742 10.4931 128.742 13.0043C128.742 14.6783 129.625 15.934 131.181 16.5617L127.985 21.4166L131.349 21.4166L134.124 16.9803L136.606 16.9803L136.606 21.4166L139.591 21.4166L139.591 8.86084ZM133.998 14.7202C132.611 14.7202 131.812 14.0924 131.812 13.0043C131.812 11.9579 132.611 11.2883 133.998 11.2883L136.606 11.2883L136.606 14.7202L133.998 14.7202Z" fill="rgb(16,24,32)" fill-rule="nonzero" />
  </g>
  <path d="M81.3144 13.1442C82.8164 13.8535 83.6509 15.1469 83.6509 16.8993C83.6509 19.5695 81.6899 21.2384 78.3938 21.2384L70.9672 21.2384L70.9672 5.38376L78.2687 5.38376C81.4396 5.38376 83.3588 7.01095 83.3588 9.59776C83.3588 11.1832 82.6078 12.4349 81.3144 13.1442ZM77.768 8.0123L74.0547 8.0123L74.0547 11.8508L77.768 11.8508C79.3952 11.8508 80.2296 11.225 80.2296 9.93155C80.2296 8.63814 79.3952 8.0123 77.768 8.0123ZM77.8097 18.6099C79.6038 18.6099 80.48 17.9423 80.48 16.5237C80.48 15.1052 79.6038 14.3959 77.8097 14.3959L74.0547 14.3959L74.0547 18.6099L77.8097 18.6099ZM86.3996 7.05267L86.3996 4.38242L89.654 4.38242L89.654 7.05267L86.3996 7.05267ZM86.5248 21.2384L86.5248 8.72159L89.5288 8.72159L89.5288 21.2384L86.5248 21.2384ZM104.502 18.5264L106.171 18.5264L106.171 24.159L103.292 24.159L103.292 21.2384L94.906 21.2384L94.906 24.159L92.0272 24.159L92.0272 18.5264L93.5292 18.5264C93.7378 17.5668 93.8212 16.0648 93.8212 13.9369L93.8212 8.72159L104.502 8.72159L104.502 18.5264ZM96.4498 18.6099L101.54 18.6099L101.54 11.3501L96.7418 11.3501L96.7418 14.0621C96.7418 15.8562 96.6584 17.3999 96.4498 18.6099ZM116.889 8.72159L119.893 8.72159L119.893 21.2384L116.889 21.2384L116.889 16.2317L111.465 16.2317L111.465 21.2384L108.461 21.2384L108.461 8.72159L111.465 8.72159L111.465 13.478L116.889 13.478L116.889 8.72159ZM128.858 21.447C124.936 21.447 122.391 18.9019 122.391 14.98C122.391 11.0998 125.02 8.51297 128.858 8.51297C132.78 8.51297 135.325 11.0581 135.325 14.98C135.325 18.8602 132.697 21.447 128.858 21.447ZM128.858 18.9437C130.945 18.9437 132.238 17.4417 132.238 14.98C132.238 12.5184 130.945 11.0163 128.858 11.0163C126.772 11.0163 125.479 12.5184 125.479 14.98C125.479 17.4417 126.772 18.9437 128.858 18.9437ZM146.419 14.8131C147.796 15.2721 148.547 16.3151 148.547 17.8172C148.547 20.0285 146.836 21.2384 143.999 21.2384L137.824 21.2384L137.824 8.72159L143.54 8.72159C146.46 8.72159 148.213 9.76466 148.213 12.0177C148.213 13.3945 147.503 14.3542 146.419 14.8131ZM140.661 10.9746L140.661 13.77L143.54 13.77C144.75 13.77 145.292 13.3528 145.292 12.3515C145.292 11.4753 144.708 10.9746 143.623 10.9746L140.661 10.9746ZM143.707 18.9437C144.875 18.9437 145.542 18.3596 145.542 17.4417C145.542 16.482 144.833 15.8979 143.623 15.8979L140.661 15.8979L140.661 18.9437L143.707 18.9437ZM162.227 8.72159L162.227 21.2384L159.223 21.2384L159.223 11.4336L154.716 11.4336L154.716 15.439C154.716 19.9033 153.715 21.3219 151.045 21.3219C150.586 21.3219 150.085 21.2801 149.751 21.2384L149.751 18.5264L150.461 18.5264C151.462 18.5264 151.754 18.1509 151.754 15.1052L151.754 8.72159L162.227 8.72159ZM167.771 15.9396C168.063 17.8172 169.314 18.9437 171.275 18.9437C172.903 18.9437 174.071 18.3178 174.822 17.4417L176.699 19.2357C175.573 20.5291 173.779 21.447 171.275 21.447C166.978 21.447 164.767 18.6933 164.767 14.98C164.767 11.1415 167.27 8.51297 171.067 8.51297C174.78 8.51297 177.2 11.0581 177.2 14.98C177.2 15.2721 177.2 15.5224 177.075 15.9396L167.771 15.9396ZM171.067 10.9329C169.314 10.9329 168.146 11.976 167.812 13.7283L174.154 13.7283C173.821 11.9342 172.694 10.9329 171.067 10.9329ZM188.085 8.72159L191.089 8.72159L191.089 21.2384L188.085 21.2384L188.085 16.2317L182.661 16.2317L182.661 21.2384L179.657 21.2384L179.657 8.72159L182.661 8.72159L182.661 13.478L188.085 13.478L188.085 8.72159ZM202.891 8.72159L205.895 8.72159L205.895 21.2384L202.891 21.2384L202.891 16.2317L197.467 16.2317L197.467 21.2384L194.463 21.2384L194.463 8.72159L197.467 8.72159L197.467 13.478L202.891 13.478L202.891 8.72159ZM219.409 8.72159L219.409 21.2384L216.446 21.2384L216.446 16.8158L213.985 16.8158L211.231 21.2384L207.893 21.2384L211.064 16.3986C209.52 15.7727 208.644 14.5211 208.644 12.8521C208.644 10.3488 210.563 8.72159 213.526 8.72159L219.409 8.72159ZM213.859 14.5628L216.446 14.5628L216.446 11.1415L213.859 11.1415C212.483 11.1415 211.69 11.8091 211.69 12.8521C211.69 13.9369 212.483 14.5628 213.859 14.5628Z" fill="rgb(57,48,40)" fill-rule="nonzero" />
</svg>