<svg viewBox="0 0 152 27" xmlns="http://www.w3.org/2000/svg" xmlns:xlink="http://www.w3.org/1999/xlink" width="152.000000" height="27.000000" fill="none">
  <path id="Vector" d="M2.62689 2.45461L2.62612 2.45533C1.58118 3.4298 1.03726 4.67676 0.759902 6.44243C0.480183 8.2232 0.479012 10.4745 0.479012 13.4294C0.479012 16.3843 0.480182 18.6357 0.759909 20.417C1.03727 22.1833 1.58123 23.4317 2.62651 24.4088C3.66907 25.3854 5.00354 25.8942 6.89257 26.1534C8.79775 26.4149 11.2064 26.416 14.3678 26.416C17.5291 26.416 19.9378 26.4149 21.8436 26.1534C23.7333 25.8942 25.0689 25.3857 26.1142 24.4088C27.1596 23.4316 27.7035 22.1844 27.9808 20.4188C28.2606 18.6381 28.2617 16.3867 28.2617 13.4294C28.2617 10.4721 28.2606 8.2207 27.9808 6.43999C27.7035 4.67446 27.1596 3.42718 26.1142 2.4501C25.069 1.47552 23.7346 0.968315 21.8457 0.709689C19.9404 0.448818 17.5317 0.447728 14.3678 0.447728C11.2038 0.447728 8.79515 0.448824 6.89064 0.710276C5.00239 0.96949 3.66952 1.47785 2.62689 2.45461ZM26.4529 2.13351C28.7407 4.27189 28.7407 7.54037 28.7407 13.4294C28.7407 19.3185 28.7407 22.5869 26.4529 24.7253C24.1652 26.8637 20.6631 26.8637 14.3678 26.8637C8.07242 26.8637 4.57038 26.8637 2.28779 24.7253C0 22.5869 4.90472e-21 19.3136 4.90472e-21 13.4294C4.90472e-21 7.54523 0 4.27189 2.28779 2.13838C4.57038 0 8.06721 0 14.3678 0C20.6683 0 24.1652 0 26.4529 2.13351Z" fill="rgb(57,48,40)" fill-rule="evenodd" />
  <path id="Vector" d="M13.762 21.9198C12.7474 21.1879 11.9991 20.0961 11.7581 18.8244L8.48584 18.8244L8.48584 5.44691C10.2488 6.27475 11.5045 8.11041 11.6567 10.006L12.1513 13.7613L11.9103 13.7253C11.3777 13.7253 10.921 14.1932 10.921 14.6612C10.921 15.0931 11.2762 15.465 11.7328 15.561L12.3289 15.693C13.3181 13.9293 13.8763 12.2017 13.8763 10.498C13.8763 8.96226 13.6606 7.43852 13.6352 5.87883C13.6352 5.18296 13.9143 4.54708 14.3708 4.05518C14.8275 4.55908 15.1065 5.18296 15.1065 5.87883C15.1065 7.43852 14.8655 8.97421 14.8655 10.498C14.8655 12.1896 15.4236 13.9293 16.4129 15.693L17.009 15.561C17.4656 15.465 17.8207 15.0931 17.8207 14.6612C17.8207 14.1932 17.3641 13.7253 16.8314 13.7253L16.5904 13.7613L17.0851 10.006C17.3261 8.11041 18.4929 6.27475 20.2559 5.44691L20.2559 18.8244L16.9836 18.8244C16.7426 20.0841 16.0324 21.2239 14.9796 21.9198C14.7387 22.0877 14.5231 22.2917 14.3836 22.5557C14.2187 22.2797 14.0031 22.0877 13.762 21.9198ZM10.0332 14.2053C10.1728 13.7013 10.5659 13.2694 11.0479 13.0054L10.6547 9.91003C10.5152 8.95025 10.0966 8.08638 9.46248 7.37851L9.46248 14.1932L10.0332 14.1932L10.0332 14.2053ZM11.6947 17.8885C11.6947 17.4206 11.7708 16.9887 11.8723 16.5568L11.4157 16.4608C10.7435 16.2569 10.2235 15.7649 10.0459 15.1291L9.48781 15.1291L9.48781 17.8885L11.6947 17.8885ZM13.8635 17.8885C13.8635 17.3246 13.4069 16.8207 12.8108 16.7607C12.7094 17.1207 12.6333 17.4926 12.6333 17.8885L13.8635 17.8885ZM13.8635 18.8244L12.7728 18.8244C12.9504 19.5563 13.3309 20.2161 13.8635 20.792L13.8635 18.8244ZM15.4109 15.9329C14.9924 15.201 14.5992 14.4332 14.3582 13.6414C14.1172 14.4452 13.724 15.201 13.3055 15.9329C13.724 16.0289 14.0792 16.2928 14.3582 16.5928C14.6372 16.2928 14.9924 16.0289 15.4109 15.9329ZM16.0831 17.8885C16.0831 17.4926 16.007 17.1207 15.9055 16.7607C15.3094 16.8328 14.8528 17.3246 14.8528 17.8885L16.0831 17.8885ZM15.9436 18.8244L14.8528 18.8244L14.8528 20.792C15.3856 20.2161 15.7661 19.5563 15.9436 18.8244ZM19.2539 17.8885L19.2539 15.1291L18.6958 15.1291C18.5183 15.7649 17.9983 16.2569 17.3261 16.4608L16.8694 16.5568C16.9709 16.9887 17.0471 17.4206 17.0471 17.8885L19.2539 17.8885ZM19.2539 14.2053L19.2539 7.39053C18.6198 8.08638 18.1632 8.95025 18.0617 9.92205L17.6685 13.0175C18.1632 13.2814 18.5437 13.7133 18.6832 14.2172L19.2539 14.2172L19.2539 14.2053Z" fill="rgb(57,48,40)" fill-rule="nonzero" />
  <path id="Subtract" d="M47.7735 26.8696C54.0863 26.8696 57.5956 26.8696 59.8876 24.7321C62.1797 22.5946 62.1797 19.3239 62.1797 13.4348L62.1797 13.4348C62.1797 7.54568 62.1797 4.27492 59.8876 2.13746C57.5956 0 54.0863 0 47.7735 0C41.4605 0 37.9512 0 35.6592 2.13746C33.3672 4.27493 33.3672 7.54765 33.3672 13.4348C33.3672 19.3219 33.3672 22.5946 35.6592 24.7321C37.9512 26.8696 41.4605 26.8696 47.7735 26.8696ZM50.2697 16.9958C49.6577 17.3825 48.9233 17.5757 48.0666 17.5757C46.9344 17.5757 46.0012 17.272 45.2669 16.6645C44.5325 16.057 44.0888 15.2147 43.9358 14.1377L49.8107 14.1377L49.8107 12.1495L43.9817 12.1495C44.1959 11.1554 44.6549 10.3822 45.3586 9.82989C46.0624 9.25 46.9651 8.96002 48.0666 8.96002C48.9233 8.96002 49.6577 9.16718 50.2697 9.58136C50.9122 9.968 51.4018 10.5341 51.7384 11.2797L54.2627 10.4926C53.865 9.33282 53.1 8.43534 51.9679 7.80023C50.8663 7.16513 49.5659 6.84754 48.0666 6.84754C46.0165 6.84754 44.3489 7.44127 43.0638 8.62866C41.8092 9.81605 41.182 11.3625 41.182 13.2679C41.182 15.1733 41.8092 16.7197 43.0638 17.9071C44.3489 19.0945 46.0165 19.6883 48.0666 19.6883C49.5659 19.6883 50.8663 19.3707 51.9679 18.7356C53.1 18.1004 53.865 17.2029 54.2627 16.0431L51.7384 15.2561C51.4018 16.0017 50.9122 16.5816 50.2697 16.9958Z" fill="rgb(57,48,40)" fill-rule="evenodd" />
  <path id="Vector" d="M83.2745 21.6263C88.2557 21.6263 91.6663 18.3199 91.6663 13.465C91.6663 8.5264 88.3455 5.30371 83.2745 5.30371C78.2925 5.30371 74.9268 8.6101 74.9268 13.465C74.9268 18.4036 78.2476 21.6263 83.2745 21.6263ZM83.2745 18.8221C80.3568 18.8221 78.4271 16.7295 78.4271 13.465C78.4271 10.2005 80.3568 8.10783 83.2745 8.10783C86.1914 8.10783 88.1211 10.2005 88.1211 13.465C88.1211 16.7295 86.1914 18.8221 83.2745 18.8221Z" fill="rgb(57,48,40)" fill-rule="nonzero" />
  <path id="Vector" d="M100.182 21.6267C103.189 21.6267 105.568 20.2455 106.331 17.8599L103.279 16.981C102.74 18.3203 101.663 19.1155 100.138 19.1155C97.9835 19.1155 96.6372 17.5669 96.6372 15.1395C96.6372 12.7121 97.9835 11.1635 100.138 11.1635C101.663 11.1635 102.74 11.9587 103.234 13.298L106.331 12.419C105.568 10.0335 103.189 8.65234 100.182 8.65234C96.0987 8.65234 93.3164 11.2472 93.3164 15.1395C93.3164 19.0318 96.0987 21.6267 100.182 21.6267Z" fill="rgb(57,48,40)" fill-rule="nonzero" />
  <path id="Vector" d="M110.449 16.1021L120.457 16.1021C120.592 15.6835 120.592 15.4324 120.592 15.1395C120.592 11.2053 117.989 8.65234 113.995 8.65234C109.91 8.65234 107.218 11.289 107.218 15.1395C107.218 18.8644 109.596 21.6267 114.219 21.6267C116.912 21.6267 118.841 20.7059 120.053 19.4085L118.034 17.6088C117.226 18.4877 115.969 19.1155 114.219 19.1155C112.109 19.1155 110.763 17.9854 110.449 16.1021ZM113.995 11.0798C115.745 11.0798 116.957 12.0842 117.316 13.8839L110.494 13.8839C110.853 12.1261 112.109 11.0798 113.995 11.0798Z" fill="rgb(57,48,40)" fill-rule="nonzero" />
  <path id="Vector" d="M134.628 8.86084L123.363 8.86084L123.363 15.2643C123.363 18.3195 123.049 18.6962 121.972 18.6962L121.209 18.6962L121.209 21.4166C121.568 21.4585 122.107 21.5003 122.6 21.5003C125.473 21.5003 126.55 20.0773 126.55 15.5991L126.55 11.5812L131.397 11.5812L131.397 21.4166L134.628 21.4166L134.628 8.86084Z" fill="rgb(57,48,40)" fill-rule="nonzero" />
  <path id="Vector" d="M148.979 8.86084L142.651 8.86084C139.464 8.86084 137.4 10.4931 137.4 13.0043C137.4 14.6783 138.342 15.934 140.003 16.5617L136.592 21.4166L140.182 21.4166L143.144 16.9803L145.793 16.9803L145.793 21.4166L148.979 21.4166L148.979 8.86084ZM143.01 14.7202C141.529 14.7202 140.676 14.0924 140.676 13.0043C140.676 11.9579 141.529 11.2883 143.01 11.2883L145.793 11.2883L145.793 14.7202L143.01 14.7202Z" fill="rgb(57,48,40)" fill-rule="nonzero" />
</svg>