<svg viewBox="0 0 68 68" xmlns="http://www.w3.org/2000/svg" xmlns:xlink="http://www.w3.org/1999/xlink" width="68.000000" height="68.000000" fill="none" customFrame="#000000">
	<rect id="Document 2" width="68.000000" height="68.000000" x="0.000000" y="0.000000" />
	<path id="Vector 407" d="M43.933 42.449L46.4469 45.0204L51.4749 39.8776M46.9497 32.1633L37.8994 37.4286C37.8994 42.449 39.6592 48.449 46.9497 52.6122C48.3637 51.8048 49.5696 50.9283 50.595 50.0032C54.8566 46.1585 56 41.4753 56 37.4286L50.595 34.284L46.9497 32.1633C46.9497 26.6939 46.9497 15.5592 46.9497 14.7755C46.9497 13.7959 46.4469 13.3061 45.4413 13.3061C44.553 13.3061 19.8253 13.3061 13.6397 13.3061C12.8236 13.3061 12.3302 13.3061 12.257 13.3061C11.6285 13.3061 11 13.551 11 14.7755C11 16 11 55.551 11 56.2857C11 57.0204 11 58 12.257 58C13.514 58 44.6872 58 45.4413 58C46.1955 58 46.9497 57.5102 46.9497 56.2857C46.9497 56.0446 46.9497 55.7492 46.9497 55.4286C46.9497 54.4463 46.9497 53.2277 46.9497 52.6122M13.6397 13.3061C13.6397 12.9796 13.6397 12.1061 13.6397 11.2245C13.6397 10.1224 14.1425 10 15.148 10C16.1536 10 47.2011 10 48.8352 10C50.4693 10 50.595 10.7347 50.595 11.2245C50.595 11.6163 50.595 26.7608 50.595 34.284M50.595 50.0032C50.595 50.7504 50.595 52.6122 50.595 54.0816C50.595 55.0612 49.9665 55.4286 49.0866 55.4286C48.3827 55.4286 47.3687 55.4286 46.9497 55.4286M16.2793 46.7347C18.7933 47.4694 20.5531 47.8367 21.433 45.7551C22.3129 43.6735 20.176 42.5714 19.4218 43.7959C18.6676 45.0204 17.662 47.7143 20.3017 49.3061C22.9413 50.898 24.4497 47.102 24.7011 45.7551C24.8268 44.7755 25.3296 44.0408 25.8324 45.5102C26.3352 46.9796 27.5922 46.3673 27.8436 45.3878C28.095 44.4082 28.5978 43.0612 29.2263 42.5714M16.6564 52.4898L28.095 52.4898M18.1648 33.3878L39.9106 33.3878M39.9106 30.0816L18.1648 30.0816M18.1648 27.0204L39.9106 27.0204M39.9106 23.7143L18.1648 23.7143M22.9413 20.6531L35.1341 20.6531" stroke="rgb(57,48,40)" stroke-linecap="round" stroke-width="1" />
</svg>
