<svg width="68" height="68" viewBox="0 0 68 68" fill="none" xmlns="http://www.w3.org/2000/svg">
<path d="M39.6119 40.25L39.6119 51.92C39.6119 54.1733 37.7853 56 35.5319 56H20.474M39.6119 26.4121L39.6119 16.08C39.6119 13.8267 37.7853 12 35.5319 12H16.08C13.8267 12 12 13.8267 12 16.08V47.2191M36.9521 34.2386C34.7601 38.0882 30.262 45.9401 29.8049 46.551C29.2337 47.3145 29.9954 48.4599 30.9475 47.5054C31.7092 46.7419 37.422 39.9365 40.1832 36.6293M36.9521 34.2386L40.1832 36.6293M36.9521 34.2386C36.7367 34.0792 36.6873 33.7773 36.8407 33.5576L47.6099 18.1357M40.1832 36.6293C40.3914 36.7833 40.6859 36.7342 40.8328 36.5209L51.5136 21.0146M16.7607 40.6334H30.7571M16.7607 36.9111H32.7566M16.7607 33.4751H34.3752M16.7607 29.9436H35.613M35.613 26.4121H16.7607M16.7607 22.8807H35.613M35.613 19.3492H16.7607M41.2728 14.5L45.7381 17.5M52.9323 22L55.2802 23.7397C55.7246 24.0897 56.4228 25.1141 55.6611 26.4121C54.8994 27.7102 45.9862 42.25 41.7066 48.9371M47.6099 18.1357L49.3325 15.6688C50.0009 14.7117 51.3347 14.5096 52.2566 15.2258L52.8488 15.6859C53.7027 16.3492 53.8907 17.5636 53.2773 18.4541L51.5136 21.0146M47.6099 18.1357L51.5136 21.0146M12 47.2191C13.4599 47.2191 16.7797 47.2191 18.3793 47.2191C20.3788 47.2191 20.474 48.5553 20.474 49.7007C20.474 50.6169 20.474 54.282 20.474 56M12 47.2191C12 47.8303 12.2424 48.4165 12.6741 48.8492L19.3368 55.5281C19.6382 55.8302 20.0473 56 20.474 56" stroke="#393028" stroke-linecap="round"/>
</svg>
