<svg width="69" height="12" viewBox="0 0 69 12" fill="none" xmlns="http://www.w3.org/2000/svg">
<g clip-path="url(#clip0_2125_21254)">
<path d="M6.01619 0C8.61248 0 10.7901 1.57555 11.5577 3.97998H9.70115C9.0311 2.55646 7.77492 1.58905 6.01619 1.58905C3.60136 1.58905 1.75873 3.49628 1.75873 5.96997C1.75873 8.44364 3.60136 10.3509 6.01619 10.3509C7.77492 10.3509 9.0311 9.3905 9.70115 7.95993H11.5577C10.7901 10.3647 8.61248 11.9399 6.01619 11.9399C2.61022 11.9402 0 9.33532 0 5.96997C0 2.60459 2.61022 0 6.01619 0Z" fill="#393028"/>
<path d="M21.8087 8.51864C21.8087 10.3774 20.4479 11.8009 18.0259 11.8009H12.7637V0.192383H18.0051C20.3361 0.192383 21.6415 1.56747 21.6415 3.3432C21.6415 4.40747 21.1879 5.3194 20.1478 5.87911C21.2715 6.45968 21.809 7.3854 21.809 8.51864H21.8087ZM17.9213 5.26423C19.2613 5.26423 19.9453 4.60089 19.9453 3.42626C19.9453 2.25164 19.2613 1.71951 17.9213 1.71951H14.4385V5.27126H17.9213V5.26423ZM20.05 8.44964C20.05 7.30264 19.331 6.70827 17.9352 6.70827H14.4317V10.2738H17.9352C19.3242 10.2738 20.05 9.62426 20.05 8.44964Z" fill="#393028"/>
<path d="M24.6197 0.192383V11.8009H22.9446V0.192383H24.6197Z" fill="#393028"/>
<path d="M64.2868 11.737L61.4605 3.94257L57.5029 11.9028L53.7346 4.00477L50.7195 11.737H48.9607L52.8479 2.15304L51.8779 0.128418H53.7551L57.5243 8.43413L60.7555 2.001L60.0856 0.128418H61.893L66.1017 11.737H64.2868Z" fill="#393028"/>
<path d="M68.9915 0.192383V11.8009H67.3164V0.192383H68.9915Z" fill="#393028"/>
<path d="M38.0444 10.1602H36.7111V0.192383H29.4738V1.18737C29.4738 5.2105 28.5704 8.42029 26.9738 10.1602H25.8513V11.8009H38.0441V10.1602H38.0444ZM31.107 1.81079H35.0292V10.1599H28.9448C30.2802 8.15822 31.0238 5.30205 31.107 1.81079Z" fill="#393028"/>
<path d="M42.4841 11.9726C41.2878 11.9726 40.1917 11.5864 39.3919 10.7936C37.4156 8.83503 37.9668 5.09808 40.6151 2.46676C41.8656 1.22786 43.3984 0.401634 44.9309 0.148629C46.5712 -0.124627 48.0234 0.268674 49.0184 1.25457C50.9948 3.21315 50.4434 6.9501 47.7952 9.58139C46.2153 11.147 44.2385 11.9729 42.4841 11.9729V11.9726ZM45.9262 1.72712C45.6979 1.72712 45.4625 1.74708 45.2204 1.78699C44.0308 1.98687 42.8139 2.64639 41.8123 3.64549C39.8493 5.59057 39.2846 8.32842 40.5887 9.62101C41.8928 10.9133 44.6493 10.3539 46.619 8.40853C48.5815 6.46346 49.1467 3.72562 47.8422 2.4333C47.3785 1.97366 46.713 1.72712 45.9333 1.72712H45.9262Z" fill="#393028"/>
</g>
<defs>
<clipPath id="clip0_2125_21254">
<rect width="69" height="12" fill="white"/>
</clipPath>
</defs>
</svg>
