<svg width="24" height="24" viewBox="0 0 24 24" fill="none" xmlns="http://www.w3.org/2000/svg">
<path d="M14.3904 6.97217C13.8912 2.69282 10.3112 -0.454642 6.31128 0.0541992C2.31178 0.563527 -0.438719 4.51625 0.0603027 8.79541C0.473532 12.3388 2.99871 15.1033 6.12573 15.6616V20.1245C5.9178 20.1425 5.68263 20.1823 5.44214 20.2632C5.09905 19.8804 4.50796 19.4645 3.68237 19.4644C3.00775 19.4644 2.41535 19.707 1.99194 20.1372C1.56995 20.5661 1.34261 21.1548 1.34253 21.7974C1.34258 22.2539 1.42868 22.663 1.54077 22.9985H0.857178C0.581142 22.9985 0.357351 23.2225 0.357178 23.4985C0.357275 23.7746 0.581095 23.9985 0.857178 23.9985H23.5017C23.7777 23.9984 24.0016 23.7745 24.0017 23.4985C24.0015 23.2226 23.7777 22.9986 23.5017 22.9985H20.9656C21.018 22.8466 21.0486 22.6839 21.0486 22.5142V20.4116H21.4714C22.5973 20.4115 23.5104 19.4984 23.5105 18.3726C23.5103 17.2467 22.5973 16.3336 21.4714 16.3335H20.0642V15.2817H20.4871C21.6128 15.2815 22.526 14.3684 22.5261 13.2427C22.526 12.117 21.6128 11.2039 20.4871 11.2036H13.8103C14.3428 9.92432 14.5652 8.47116 14.3904 6.97217ZM20.0486 22.5142C20.0486 22.7817 19.8317 22.9984 19.5642 22.9985C19.2967 22.9984 19.0799 22.7817 19.0798 22.5142V20.7505H20.0486V22.5142ZM18.0798 22.5142C18.0798 22.6838 18.1095 22.8467 18.1619 22.9985H13.0886C13.1411 22.8466 13.1716 22.6839 13.1716 22.5142V20.4116H18.0798V22.5142ZM12.1716 22.5142C12.1716 22.7817 11.9548 22.9984 11.6873 22.9985C11.4197 22.9984 11.2029 22.7817 11.2029 22.5142V20.7505H12.1716V22.5142ZM10.0369 15.145C10.2633 15.2318 10.5084 15.2817 10.7654 15.2817H11.1873V16.3335H9.78101C8.65509 16.3335 7.74211 17.2467 7.74194 18.3726C7.74207 19.4985 8.65506 20.4116 9.78101 20.4116H10.2029V22.5142C10.2029 22.6838 10.2325 22.8467 10.2849 22.9985H9.23315C9.23327 22.9952 9.23413 22.9912 9.23413 22.9878C9.23399 22.1091 8.95142 21.3832 8.46265 20.8745C8.09495 20.4919 7.62824 20.2502 7.12573 20.1548V15.7632C7.45886 15.7714 7.79657 15.7567 8.13745 15.7134C8.74873 15.6356 9.33378 15.4764 9.88257 15.2466C9.94157 15.2219 9.99315 15.1869 10.0369 15.145ZM3.68237 20.4644C4.32281 20.4645 4.7279 20.9156 4.83569 21.1167L5.07886 21.5708L5.52515 21.314C5.86826 21.1169 6.26319 21.1089 6.62573 21.1089C7.06127 21.109 7.45509 21.2704 7.74097 21.5679C8.0254 21.8639 8.23399 22.3283 8.23413 22.9878C8.23413 22.9912 8.23499 22.9952 8.23511 22.9985H2.61694C2.49428 22.7496 2.34262 22.3205 2.34253 21.7974C2.3426 21.3931 2.48311 21.0637 2.70483 20.8384C2.92525 20.6146 3.25367 20.4644 3.68237 20.4644ZM21.4714 17.3335C22.045 17.3336 22.5103 17.799 22.5105 18.3726C22.5104 18.9461 22.045 19.4115 21.4714 19.4116H9.78101C9.20735 19.4116 8.74207 18.9462 8.74194 18.3726C8.74211 17.799 9.20738 17.3335 9.78101 17.3335H21.4714ZM19.0642 15.2817V16.3335H12.1873V15.2817H19.0642ZM6.42749 1.04736C9.79416 0.61908 12.9535 3.2779 13.3992 7.09814C13.5624 8.49769 13.3333 9.84395 12.8113 11.0063C12.7825 11.0705 12.7686 11.1376 12.7673 11.2036H10.7654C9.63947 11.2036 8.72649 12.1168 8.72632 13.2427C8.72637 13.7008 8.88029 14.1219 9.1355 14.4624C8.77907 14.5835 8.40722 14.6712 8.02222 14.7202C7.72115 14.7585 7.42167 14.771 7.12573 14.7612V10.9341L10.4294 7.4585C10.6194 7.25832 10.6119 6.9416 10.4119 6.75146C10.2118 6.56144 9.89505 6.57016 9.70483 6.77002L7.12573 9.48291V5.43506C7.12556 5.1592 6.90158 4.93529 6.62573 4.93506C6.3497 4.93506 6.12591 5.15906 6.12573 5.43506V10.7876L4.53296 9.104C4.34334 8.90364 4.02653 8.89521 3.82593 9.08447C3.62535 9.27422 3.6167 9.5909 3.8064 9.7915L6.12573 12.2427V14.6382C3.54407 14.0842 1.41162 11.7569 1.05151 8.66943C0.606007 4.84917 3.06098 1.47594 6.42749 1.04736ZM20.4871 12.2036C21.0605 12.2039 21.526 12.6692 21.5261 13.2427C21.526 13.8162 21.0605 14.2815 20.4871 14.2817H10.7654C10.1917 14.2817 9.72644 13.8163 9.72632 13.2427C9.72649 12.6691 10.1918 12.2036 10.7654 12.2036H20.4871Z" fill="#393028"/>
</svg>
