<svg width="132" height="132" viewBox="0 0 132 132" fill="none" xmlns="http://www.w3.org/2000/svg">
<path d="M10 49.4219H15.6992V54.2577H10V49.4219ZM10 56.5925H15.6992V77.9869H10.0069L10 56.5925ZM39.5062 64.4273V77.9879H33.807V65.7053C33.807 62.6451 32.384 60.9389 29.966 60.9389C29.3218 60.9191 28.6804 61.0301 28.0802 61.2651C27.48 61.5001 26.9336 61.8543 26.474 62.3061C26.0144 62.7581 25.651 63.2983 25.406 63.8943C25.1608 64.4905 25.0388 65.1299 25.0476 65.7745V77.9879H19.3553V56.5729H24.481L24.6952 59.5641C25.55 58.5015 26.6356 57.6475 27.8698 57.0671C29.1038 56.4865 30.4538 56.1947 31.8174 56.2137C36.3698 56.2345 39.5062 59.5157 39.5062 64.4273ZM60.4904 73.1867V77.9879H41.9076V73.7187L53.1056 61.2911H42.5502V56.5729H60.3522V60.8421L49.244 73.1867H60.4904ZM83.0138 64.4271V77.9877H77.287V65.7051C77.287 62.6449 75.7878 60.9385 73.439 60.9385C72.7954 60.9199 72.1546 61.0315 71.5552 61.2671C70.956 61.5025 70.4104 61.8567 69.9516 62.3085C69.4926 62.7603 69.13 63.3001 68.8852 63.8957C68.6404 64.4913 68.5188 65.1303 68.5274 65.7743V77.9877H62.856V49.4711H68.555V59.1425C69.4098 58.2025 70.455 57.4555 71.6212 56.9517C72.7874 56.4479 74.0478 56.1985 75.318 56.2203C79.8774 56.2341 83.0138 59.5155 83.0138 64.4271ZM105.566 56.5729V77.9879H100.44L100.226 74.9967C99.3712 76.0593 98.2856 76.9133 97.0514 77.4937C95.8174 78.0743 94.4674 78.3661 93.1038 78.3471C88.5514 78.3471 85.415 75.0727 85.415 70.1611V56.5729H91.1004V68.8415C91.1004 71.9019 92.5234 73.6151 94.9414 73.6151C95.5852 73.6337 96.2264 73.5221 96.8262 73.2867C97.4258 73.0513 97.9718 72.6971 98.4312 72.2455C98.8906 71.7939 99.254 71.2539 99.4994 70.6583C99.745 70.0627 99.8676 69.4237 99.8598 68.7795V56.5729H105.566ZM121.585 56.2757L121.516 61.4499C120.777 61.3707 120.031 61.3707 119.292 61.4499C116.791 61.7331 114.974 63.0525 114.974 66.3269V77.9879H109.275V56.5727H114.401L114.691 59.7781C115.311 58.8239 116.136 58.0191 117.104 57.4219C118.073 56.8247 119.162 56.4497 120.293 56.3241C120.722 56.2769 121.154 56.2607 121.585 56.2757Z" fill="#393028"/>
<path fill-rule="evenodd" clip-rule="evenodd" d="M44.5192 1H87.4876C99.0242 1.01497 110.085 5.60494 118.242 13.7631C126.399 21.9213 130.987 32.9816 131 44.5182V87.4876C130.987 99.0234 126.398 110.084 118.241 118.241C110.084 126.398 99.0246 130.987 87.4888 131H44.5192C32.9828 130.987 21.9214 126.399 13.7631 118.242C5.60488 110.085 1.01497 99.0254 1 87.489V44.5192C1.0131 32.9816 5.60224 21.919 13.7606 13.7606C21.919 5.60228 32.9816 1.0131 44.5192 1ZM87.487 3H44.5198C33.512 3.01266 22.9586 7.3911 15.1749 15.1749C7.39112 22.9586 3.01264 33.512 3 44.5198V87.487C3.01446 98.4936 7.3937 109.045 15.1772 116.828C22.961 124.61 33.5136 128.988 44.5204 129H87.4864C98.4928 128.988 109.045 124.61 116.827 116.827C124.61 109.045 128.988 98.4928 129 87.4864V44.5204C128.988 33.5136 124.61 22.961 116.828 15.1772C109.045 7.3937 98.4936 3.01446 87.487 3Z" fill="#393028"/>
</svg>
