<svg width="62" height="24" viewBox="0 0 62 24" fill="none" xmlns="http://www.w3.org/2000/svg">
<path d="M8.55754 24C6.16459 24 3.9723 23.2216 2.37252 21.6239C-1.58064 17.6767 -0.478174 10.1455 4.81919 4.84245C7.32038 2.34565 10.3864 0.680519 13.4517 0.170628C16.7326 -0.380077 19.6375 0.412559 21.6275 2.39947C25.5808 6.34669 24.4779 13.8779 19.1809 19.1809C16.0208 22.336 12.0668 24 8.55754 24Z" fill="#B3BECD"/>
<path d="M27.5575 24C25.1646 24 22.9723 23.2216 21.3725 21.6239C17.4194 17.6767 18.5218 10.1455 23.8192 4.84245C26.3204 2.34565 29.3864 0.680519 32.4517 0.170628C35.7326 -0.380077 38.6375 0.412559 40.6275 2.39947C44.5808 6.34669 43.4779 13.8779 38.1809 19.1809C35.0208 22.336 31.0668 24 27.5575 24Z" fill="#B3BECD"/>
<path d="M46.5575 24C44.1646 24 41.9723 23.2216 40.3725 21.6239C36.4194 17.6767 37.5218 10.1455 42.8192 4.84245C45.3204 2.34565 48.3864 0.680519 51.4517 0.170628C54.7326 -0.380077 57.6375 0.412559 59.6275 2.39947C63.5808 6.34669 62.4779 13.8779 57.1809 19.1809C54.0208 22.336 50.0668 24 46.5575 24Z" fill="#B3BECD"/>
</svg>
