<svg width="32" height="32" viewBox="0 0 32 32" fill="none" xmlns="http://www.w3.org/2000/svg">
<path d="M15.9805 2.90002C15.3316 2.90002 14.6934 3.07139 14.1328 3.39807C13.5734 3.72416 13.1108 4.19343 12.791 4.75647L2.12207 23.4264C1.79894 23.9862 1.62947 24.6218 1.63086 25.2682C1.63238 25.9147 1.80411 26.5505 2.12988 27.109C2.45572 27.6673 2.92431 28.1294 3.48633 28.4489C4.04577 28.7668 4.67892 28.9315 5.32227 28.9274V28.9283H26.665C27.3085 28.9277 27.941 28.7573 28.498 28.4352C29.0549 28.113 29.5174 27.6497 29.8389 27.0924C30.1602 26.5351 30.3292 25.9027 30.3291 25.2594C30.329 24.6963 30.1992 24.1415 29.9512 23.6383L29.8379 23.4264L19.1699 4.75647H19.1689C18.8491 4.19342 18.3866 3.72416 17.8271 3.39807C17.2666 3.07147 16.6292 2.9001 15.9805 2.90002ZM16.21 20.6031C17.2185 20.7056 18.0059 21.5569 18.0059 22.5924C18.0056 23.6277 17.2183 24.4793 16.21 24.5817L16.0059 24.5924H15.9922C14.8878 24.5924 13.9925 23.6968 13.9922 22.5924C13.9922 21.4878 14.8876 20.5924 15.9922 20.5924H16.0059L16.21 20.6031ZM15.9922 8.99963C17.0966 8.99963 17.992 9.89526 17.9922 10.9996V16.3346C17.9922 17.4392 17.0968 18.3346 15.9922 18.3346C14.8876 18.3346 13.9922 17.4392 13.9922 16.3346V10.9996C13.9924 9.89526 14.8878 8.99963 15.9922 8.99963Z" fill="#9F9E8A"/>
</svg>
