<svg width="770" height="171" viewBox="0 0 770 171" fill="none" xmlns="http://www.w3.org/2000/svg">
<g clip-path="url(#clip0_1350_3399)">
<path d="M75.428 20.2695C103.548 20.2695 127.134 37.5182 135.447 63.8411H115.339C108.082 48.2568 94.4765 37.666 75.428 37.666C49.2733 37.666 29.3161 58.5457 29.3161 85.6269C29.3161 112.708 49.2733 133.588 75.428 133.588C94.4765 133.588 108.082 123.074 115.339 107.412H135.447C127.134 133.739 103.548 150.984 75.428 150.984C38.5385 150.987 10.2676 122.47 10.2676 85.6269C10.2676 48.7838 38.5385 20.2695 75.428 20.2695Z" fill="#393028"/>
<path d="M246.473 113.238C246.473 133.588 231.734 149.172 205.502 149.172H148.508V22.085H205.277C230.524 22.085 244.662 37.139 244.662 56.5791C244.662 68.2305 239.749 78.214 228.484 84.3414C240.655 90.6974 246.476 100.832 246.476 113.238H246.473ZM204.369 77.6099C218.883 77.6099 226.291 70.348 226.291 57.4884C226.291 44.629 218.883 38.8034 204.369 38.8034H166.647V77.6869H204.369V77.6099ZM227.425 112.483C227.425 99.9258 219.637 93.4189 204.52 93.4189H166.574V132.453H204.52C219.564 132.453 227.425 125.342 227.425 112.483Z" fill="#393028"/>
<path d="M276.92 22.085V149.172H258.777V22.085H276.92Z" fill="#393028"/>
<path d="M706.55 149.172L675.938 63.841L633.074 150.987L592.26 64.5221L559.604 149.172H540.555L582.657 44.2499L572.15 22.085H592.483L633.305 113.013L668.302 42.5854L661.047 22.085H680.622L726.206 149.172H706.55Z" fill="#393028"/>
<path d="M757.501 22.085V149.172H739.359V22.085H757.501Z" fill="#393028"/>
<path d="M422.321 131.21H407.881V22.085H329.494V32.9778C329.494 77.0217 319.709 112.162 302.417 131.21H290.26V149.172H422.318V131.21H422.321ZM347.184 39.8028H389.664V131.207H323.765C338.228 109.292 346.282 78.024 347.184 39.8028Z" fill="#393028"/>
<path d="M470.406 150.264C457.448 150.264 445.578 146.035 436.915 137.356C415.51 115.914 421.479 75.0035 450.163 46.1966C463.707 32.6336 480.309 23.5883 496.907 20.8185C514.672 17.827 530.402 22.1327 541.177 32.9259C562.583 54.3679 556.612 95.2789 527.929 124.085C510.818 141.225 489.408 150.267 470.406 150.267V150.264ZM507.687 38.0993C505.214 38.0993 502.665 38.3178 500.042 38.7548C487.158 40.943 473.978 48.1631 463.129 59.101C441.869 80.3952 435.752 110.368 449.877 124.519C464.002 138.667 493.857 132.543 515.19 111.245C536.446 89.9513 542.568 59.9782 528.438 45.8303C523.416 40.7984 516.208 38.0993 507.764 38.0993H507.687Z" fill="#393028"/>
</g>
<defs>
<clipPath id="clip0_1350_3399">
<rect width="747.328" height="131.328" fill="white" transform="translate(10.2676 19.8916)"/>
</clipPath>
</defs>
</svg>
