<svg width="68" height="81" viewBox="0 0 68 81" fill="none" xmlns="http://www.w3.org/2000/svg">
<g filter="url(#filter0_f_3050_8085)">
<ellipse cx="34" cy="68.75" rx="9.5" ry="3.75" fill="#393028"/>
</g>
<path d="M24.2464 65C17.4663 65 11.2548 62.8917 6.72213 58.5648C-4.47847 47.8744 -1.35483 27.4773 13.6544 13.115C20.7411 6.35279 29.4282 1.84307 38.1131 0.462117C47.4091 -1.02937 55.6396 1.11735 61.278 6.49857C72.4789 17.189 69.3541 37.5861 54.3458 51.9482C45.3923 60.4934 34.1892 65 24.2464 65Z" fill="#393028"/>
<path d="M25.0373 61C19.1546 61 13.7652 59.1837 9.83244 55.4558C0.114267 46.2456 2.82449 28.6727 15.8472 16.2991C21.9959 10.4732 29.5333 6.58788 37.0687 5.39813C45.1343 4.11315 52.2755 5.96264 57.1677 10.5988C66.8861 19.8089 64.1749 37.3818 51.153 49.7554C43.3845 57.1174 33.6642 61 25.0373 61Z" fill="#ECE9E2"/>
<path d="M41 61L33.8887 67.9533C33.3097 68.5194 32.3723 68.4768 31.847 67.8605L26 61H32.8182H41Z" fill="#393028"/>
<path d="M33.9287 21.0879L22.2988 26.1895L22 26.3203V30.208H23.5508V32.248H24.584V39.1543H23.5508V41.1953H22V45.001H46V41.1953H44.708V39.1543H43.6738V32.248H44.708V30.208H46V26.3232L45.7051 26.1904L34.334 21.0898L34.1318 20.999L33.9287 21.0879ZM45 42.1953V44.001H23V42.1953H45ZM43.708 40.1543V41.1953H39.5391V40.1543H43.708ZM38.5391 30.208V32.248H39.5732V39.1543H38.5391V41.1953H37.2139V39.1543H36.1797V32.248H37.2139V30.208H38.5391ZM36.2139 40.1543V41.1953H32.0449V40.1543H36.2139ZM31.0449 30.208V32.248H32.0791V39.1543H31.0449V41.1953H29.4609V39.1543H28.4268V32.248H29.4609V30.208H31.0449ZM28.4609 40.1543V41.1953H24.5508V40.1543H28.4609ZM42.6738 32.248V39.1543H40.5732V32.248H42.6738ZM35.1797 32.248V39.1543H33.0791V32.248H35.1797ZM27.4268 32.248V39.1543H25.584V32.248H27.4268ZM43.708 30.208V31.248H39.5391V30.208H43.708ZM36.2139 30.208V31.248H32.0449V30.208H36.2139ZM28.4609 30.208V31.248H24.5508V30.208H28.4609ZM45 26.9707V29.208H23V26.9727L34.127 22.0928L45 26.9707ZM34 24C32.8954 24 32 24.8954 32 26C32 27.1046 32.8954 28 34 28C35.1046 28 36 27.1046 36 26C36 24.8954 35.1046 24 34 24ZM34 25C34.5523 25 35 25.4477 35 26C35 26.5523 34.5523 27 34 27C33.4477 27 33 26.5523 33 26C33 25.4477 33.4477 25 34 25Z" fill="#393028"/>
<defs>
<filter id="filter0_f_3050_8085" x="16.5" y="57" width="35" height="23.5" filterUnits="userSpaceOnUse" color-interpolation-filters="sRGB">
<feFlood flood-opacity="0" result="BackgroundImageFix"/>
<feBlend mode="normal" in="SourceGraphic" in2="BackgroundImageFix" result="shape"/>
<feGaussianBlur stdDeviation="4" result="effect1_foregroundBlur_3050_8085"/>
</filter>
</defs>
</svg>
