<svg width="68" height="81" viewBox="0 0 68 81" fill="none" xmlns="http://www.w3.org/2000/svg">
<g filter="url(#filter0_f_3050_8043)">
<ellipse cx="34" cy="68.75" rx="9.5" ry="3.75" fill="#393028"/>
</g>
<path d="M24.2464 65C17.4663 65 11.2548 62.8917 6.72213 58.5648C-4.47847 47.8744 -1.35483 27.4773 13.6544 13.115C20.7411 6.35279 29.4282 1.84307 38.1131 0.462117C47.4091 -1.02937 55.6396 1.11735 61.278 6.49857C72.4789 17.189 69.3541 37.5861 54.3458 51.9482C45.3923 60.4934 34.1892 65 24.2464 65Z" fill="#393028"/>
<path d="M25.0373 61C19.1546 61 13.7652 59.1837 9.83244 55.4558C0.114267 46.2456 2.82449 28.6727 15.8472 16.2991C21.9959 10.4732 29.5333 6.58788 37.0687 5.39813C45.1343 4.11315 52.2755 5.96264 57.1677 10.5988C66.8861 19.8089 64.1749 37.3818 51.153 49.7554C43.3845 57.1174 33.6642 61 25.0373 61Z" fill="#ECE9E2"/>
<path d="M41 61L33.8887 67.9533C33.3097 68.5194 32.3723 68.4768 31.847 67.8605L26 61H32.8182H41Z" fill="#393028"/>
<g clip-path="url(#clip0_3050_8043)">
<path d="M30.1259 35.2281C30.2 35.2298 30.2733 35.2462 30.3411 35.2761C30.4088 35.306 30.4705 35.3485 30.5217 35.4019C30.5729 35.4555 30.613 35.5192 30.6398 35.5883C30.6666 35.6574 30.6799 35.7313 30.6783 35.8054C30.6766 35.8795 30.6601 35.9527 30.6302 36.0206C30.6003 36.0884 30.5571 36.1499 30.5034 36.2011C30.4768 36.2266 30.448 36.2496 30.417 36.2693L30.3181 36.3193L29.856 36.5172C29.2064 36.8066 28.2815 37.2212 27.1405 37.2213C24.7951 37.2213 23.132 38.7627 23.132 40.8609C23.1333 41.9234 23.5555 42.9422 24.3068 43.6936C25.0583 44.4451 26.0777 44.8672 27.1405 44.8684C27.9998 44.8683 28.6933 44.687 29.2413 44.3314C29.7882 43.9764 30.2064 43.4372 30.4986 42.6946L30.5034 42.684L30.5774 42.4852C30.6489 42.2537 30.7111 41.9257 30.758 41.5121C30.8197 40.9669 30.8531 40.2915 30.8531 39.5324C30.8532 39.1774 31.0356 38.8809 31.2719 38.6275C31.5074 38.375 31.8213 38.1399 32.1239 37.9119L32.5312 37.5978C32.6547 37.4973 32.7623 37.4011 32.8405 37.3125C32.9401 37.2005 33.0799 37.1322 33.2295 37.1233C33.3793 37.1144 33.5265 37.1659 33.6387 37.2654C33.7508 37.365 33.819 37.5049 33.828 37.6545C33.8369 37.8042 33.7854 37.9515 33.6858 38.0637C33.4488 38.3307 33.111 38.5851 32.805 38.8148C32.6355 38.9423 32.4166 39.1065 32.2411 39.2625C32.1531 39.3407 32.0817 39.4125 32.0336 39.4719C32.0099 39.5012 31.9953 39.5231 31.9875 39.5382C31.9809 39.5509 31.9824 39.5523 31.9837 39.5439C31.9835 40.0322 31.9705 40.7148 31.9097 41.3776C31.8497 42.0323 31.74 42.6945 31.5409 43.1288L31.5418 43.1297C31.1726 44.0688 30.6149 44.7904 29.8704 45.2756C29.1268 45.7602 28.2113 45.9998 27.1405 45.9999C24.3068 45.9999 22.0007 43.6945 22.0005 40.8609C22.0005 38.0875 24.1827 36.0897 27.1405 36.0897C28.0311 36.0896 28.771 35.7622 29.3959 35.4846C29.5645 35.4079 29.7349 35.3353 29.9069 35.2665L29.9089 35.2655C29.9779 35.2388 30.0519 35.2264 30.1259 35.2281ZM24.9773 22.0135C25.0876 22.0384 25.188 22.0953 25.2655 22.1778L36.5935 34.2608C36.6236 34.2929 36.6503 34.3282 36.6722 34.3665L36.727 34.4481C36.9736 34.7914 38.0891 36.0896 40.8613 36.0897C43.8191 36.0897 46.0013 38.0875 46.0013 40.8609C46.0011 43.6945 43.6949 45.9999 40.8613 45.9999C39.7903 45.9998 38.8743 45.7601 38.1294 45.2728C37.3837 44.7849 36.8242 44.0583 36.4503 43.1095C36.0849 42.3163 35.8193 40.9514 35.8192 39.8647C35.8192 39.3946 35.5058 38.8791 34.9125 38.275C34.3256 37.6775 33.5076 37.0339 32.5773 36.302C29.1153 33.5789 24.2876 29.7893 24.2876 22.5649C24.2876 22.4515 24.3219 22.3407 24.3856 22.247C24.4493 22.1532 24.5395 22.0802 24.6449 22.0385C24.7505 21.9968 24.8666 21.9887 24.9773 22.0135ZM25.4998 24.0816C26.1206 29.7752 30.1862 32.9814 33.2766 35.4125C34.2776 36.2001 35.1911 36.9182 35.8519 37.6247C36.5122 38.3308 36.9508 39.0569 36.9508 39.8647C36.9508 40.8003 37.1669 41.8195 37.3926 42.4285L37.4897 42.6629L37.4945 42.6735C37.7914 43.4266 38.2126 43.9712 38.7605 44.3285C39.3093 44.6864 40.0022 44.8683 40.8613 44.8684C43.0712 44.8684 44.8695 43.0714 44.8697 40.8609C44.8697 38.7634 43.2067 37.2213 40.8613 37.2213C37.3738 37.2211 35.995 35.3981 35.7347 34.9975L25.4998 24.0816ZM41.0092 38.2299C42.5416 38.2299 43.7881 39.4763 43.7881 41.0088C43.788 42.5411 42.5415 43.7877 41.0092 43.7877C39.4768 43.7877 38.2304 42.5411 38.2303 41.0088C38.2303 39.4763 39.4767 38.2299 41.0092 38.2299ZM26.9926 38.2289C28.5249 38.2289 29.7714 39.4755 29.7715 41.0078C29.7715 42.5403 28.525 43.7868 26.9926 43.7868C25.4601 43.7868 24.2136 42.5403 24.2136 41.0078C24.2138 39.4755 25.4602 38.2289 26.9926 38.2289ZM41.0092 39.3614C40.1012 39.3614 39.3618 40.1002 39.3618 41.0088C39.3619 41.9173 40.1013 42.6562 41.0092 42.6562C41.9171 42.6562 42.6564 41.9173 42.6566 41.0088C42.6566 40.1002 41.9172 39.3614 41.0092 39.3614ZM26.9926 39.3604C26.0847 39.3604 25.3453 40.0993 25.3452 41.0078C25.3452 41.9164 26.0846 42.6552 26.9926 42.6552C27.9005 42.6552 28.6399 41.9164 28.6399 41.0078C28.6398 40.0993 27.9005 39.3604 26.9926 39.3604ZM34.0018 33.9342C34.4388 33.9342 34.7932 34.2888 34.7933 34.7257C34.7933 35.1627 34.4389 35.5172 34.0018 35.5172C33.5648 35.5172 33.2103 35.1627 33.2103 34.7257C33.2105 34.2888 33.5649 33.9342 34.0018 33.9342ZM43.0245 22.0135C43.1352 21.9887 43.2513 21.9968 43.3568 22.0385C43.4622 22.0802 43.5524 22.1532 43.6162 22.247C43.6799 22.3407 43.7141 22.4515 43.7141 22.5649C43.7141 28.3921 40.6768 31.9029 38.0535 34.2934L38.0545 34.2944C38.0002 34.3474 37.9349 34.3888 37.8643 34.4164C37.7937 34.4439 37.7181 34.457 37.6424 34.4548C37.5667 34.4526 37.4922 34.4355 37.4234 34.4039C37.3546 34.3724 37.2929 34.3272 37.2418 34.2714C37.1907 34.2154 37.1508 34.1497 37.1256 34.0783C37.1004 34.0069 37.0903 33.931 37.0949 33.8554C37.0995 33.7797 37.1196 33.7052 37.1535 33.6374C37.1873 33.5696 37.2342 33.5089 37.2918 33.4597C39.5294 31.4197 42.0353 28.5655 42.5038 24.0788L35.5051 31.5433C35.4026 31.6527 35.2611 31.7171 35.1113 31.722C34.9613 31.7269 34.8154 31.6719 34.7059 31.5693C34.5965 31.4667 34.5321 31.3244 34.5273 31.1745C34.5225 31.0247 34.5776 30.8794 34.68 30.7701L42.7353 22.1778C42.8128 22.0951 42.9139 22.0384 43.0245 22.0135Z" fill="#393028"/>
</g>
<defs>
<filter id="filter0_f_3050_8043" x="16.5" y="57" width="35" height="23.5" filterUnits="userSpaceOnUse" color-interpolation-filters="sRGB">
<feFlood flood-opacity="0" result="BackgroundImageFix"/>
<feBlend mode="normal" in="SourceGraphic" in2="BackgroundImageFix" result="shape"/>
<feGaussianBlur stdDeviation="4" result="effect1_foregroundBlur_3050_8043"/>
</filter>
<clipPath id="clip0_3050_8043">
<rect width="24" height="24" fill="white" transform="translate(22 22)"/>
</clipPath>
</defs>
</svg>
