<svg width="68" height="81" viewBox="0 0 68 81" fill="none" xmlns="http://www.w3.org/2000/svg">
<g filter="url(#filter0_f_3050_8061)">
<ellipse cx="34" cy="68.75" rx="9.5" ry="3.75" fill="#393028"/>
</g>
<path d="M24.2464 65C17.4663 65 11.2548 62.8917 6.72213 58.5648C-4.47847 47.8744 -1.35483 27.4773 13.6544 13.115C20.7411 6.35279 29.4282 1.84307 38.1131 0.462117C47.4091 -1.02937 55.6396 1.11735 61.278 6.49857C72.4789 17.189 69.3541 37.5861 54.3458 51.9482C45.3923 60.4934 34.1892 65 24.2464 65Z" fill="#393028"/>
<path d="M25.0373 61C19.1546 61 13.7652 59.1837 9.83244 55.4558C0.114267 46.2456 2.82449 28.6727 15.8472 16.2991C21.9959 10.4732 29.5333 6.58788 37.0687 5.39813C45.1343 4.11315 52.2755 5.96264 57.1677 10.5988C66.8861 19.8089 64.1749 37.3818 51.153 49.7554C43.3845 57.1174 33.6642 61 25.0373 61Z" fill="#ECE9E2"/>
<path d="M41 61L33.8887 67.9533C33.3097 68.5194 32.3723 68.4768 31.847 67.8605L26 61H32.8182H41Z" fill="#393028"/>
<path d="M26 31C26 27.229 26 25.343 27.172 24.172C28.344 23.001 30.229 23 34 23C37.771 23 39.657 23 40.828 24.172C41.999 25.344 42 27.229 42 31V33C42 36.771 42 38.657 40.828 39.828C39.656 40.999 37.771 41 34 41C30.229 41 28.343 41 27.172 39.828C26.001 38.656 26 36.771 26 33V31Z" stroke="#393028"/>
<path d="M37.5 37H39M29 37H30.5M28 40.5V42C28 42.2652 28.1054 42.5196 28.2929 42.7071C28.4804 42.8946 28.7348 43 29 43H30.5C30.7652 43 31.0196 42.8946 31.2071 42.7071C31.3946 42.5196 31.5 42.2652 31.5 42V41M40 40.5V42C40 42.2652 39.8946 42.5196 39.7071 42.7071C39.5196 42.8946 39.2652 43 39 43H37.5C37.2348 43 36.9804 42.8946 36.7929 42.7071C36.6054 42.5196 36.5 42.2652 36.5 42V41M42 30H43C43.2652 30 43.5196 30.1054 43.7071 30.2929C43.8946 30.4804 44 30.7348 44 31V32C44 32.1552 43.9639 32.3084 43.8944 32.4472C43.825 32.5861 43.7242 32.7069 43.6 32.8L42 34H26L24.4 32.8C24.2758 32.7069 24.175 32.5861 24.1056 32.4472C24.0361 32.3084 24 32.1552 24 32V31C24 30.7348 24.1054 30.4804 24.2929 30.2929C24.4804 30.1054 24.7348 30 25 30H26" stroke="#393028" stroke-linecap="round" stroke-linejoin="round"/>
<path d="M41.5 26H26.5" stroke="#393028" stroke-linecap="round"/>
<defs>
<filter id="filter0_f_3050_8061" x="16.5" y="57" width="35" height="23.5" filterUnits="userSpaceOnUse" color-interpolation-filters="sRGB">
<feFlood flood-opacity="0" result="BackgroundImageFix"/>
<feBlend mode="normal" in="SourceGraphic" in2="BackgroundImageFix" result="shape"/>
<feGaussianBlur stdDeviation="4" result="effect1_foregroundBlur_3050_8061"/>
</filter>
</defs>
</svg>
