<svg width="68" height="81" viewBox="0 0 68 81" fill="none" xmlns="http://www.w3.org/2000/svg">
<g filter="url(#filter0_f_3050_8073)">
<ellipse cx="34" cy="68.75" rx="9.5" ry="3.75" fill="#393028"/>
</g>
<path d="M24.2464 65C17.4663 65 11.2548 62.8917 6.72213 58.5648C-4.47847 47.8744 -1.35483 27.4773 13.6544 13.115C20.7411 6.35279 29.4282 1.84307 38.1131 0.462117C47.4091 -1.02937 55.6396 1.11735 61.278 6.49857C72.4789 17.189 69.3541 37.5861 54.3458 51.9482C45.3923 60.4934 34.1892 65 24.2464 65Z" fill="#393028"/>
<path d="M25.0373 61C19.1546 61 13.7652 59.1837 9.83244 55.4558C0.114267 46.2456 2.82449 28.6727 15.8472 16.2991C21.9959 10.4732 29.5333 6.58788 37.0687 5.39813C45.1343 4.11315 52.2755 5.96264 57.1677 10.5988C66.8861 19.8089 64.1749 37.3818 51.153 49.7554C43.3845 57.1174 33.6642 61 25.0373 61Z" fill="#ECE9E2"/>
<path d="M41 61L33.8887 67.9533C33.3097 68.5194 32.3723 68.4768 31.847 67.8605L26 61H32.8182H41Z" fill="#393028"/>
<path d="M25 21.5C23.6193 21.5 22.5 22.6193 22.5 24V44.5H36.9062V34.5156H38.3994C39.3956 34.5159 40.203 35.3232 40.2031 36.3193V41.8516C40.2031 43.3143 41.3889 44.5 42.8516 44.5C44.3143 44.5 45.5 43.3143 45.5 41.8516V31.0117C45.5 29.2273 44.8758 27.4984 43.7354 26.126L40.7441 22.5264C40.5676 22.314 40.2524 22.2854 40.04 22.4619C39.8277 22.6384 39.7981 22.9536 39.9746 23.166L42.9658 26.7656C43.1202 26.9514 43.2632 27.1449 43.3955 27.3447C42.9785 27.1251 42.504 27 42 27C40.3431 27 39 28.3431 39 30C39 31.6569 40.3431 33 42 33C43.0443 33 43.9627 32.4656 44.5 31.6562V41.8516C44.5 42.762 43.762 43.5 42.8516 43.5C41.9412 43.5 41.2031 42.762 41.2031 41.8516V36.3193C41.203 34.7709 39.9478 33.5159 38.3994 33.5156H36.9062V24C36.9062 22.6193 35.787 21.5 34.4062 21.5H25ZM34.4062 22.5C35.2347 22.5 35.9062 23.1716 35.9062 24V43.5H23.5V24C23.5 23.1716 24.1716 22.5 25 22.5H34.4062ZM29.792 34.5938C29.6176 34.4684 29.3824 34.4684 29.208 34.5938L29.5 35L29.208 34.5947H29.207L29.2041 34.5967C29.2024 34.5979 29.2 34.5996 29.1973 34.6016C29.1916 34.6057 29.1838 34.6117 29.1738 34.6191C29.1533 34.6344 29.1235 34.6563 29.0869 34.6846C29.0138 34.741 28.9112 34.8234 28.7881 34.9268C28.5426 35.133 28.2132 35.4283 27.8828 35.7852C27.2482 36.4706 26.5002 37.4947 26.5 38.5996C26.5 39.3755 26.821 40.1161 27.3857 40.6582C27.9498 41.1996 28.7108 41.5 29.5 41.5C30.2892 41.5 31.0502 41.1996 31.6143 40.6582C32.179 40.1161 32.5 39.3755 32.5 38.5996C32.4998 37.4947 31.7518 36.4706 31.1172 35.7852C30.7868 35.4283 30.4574 35.133 30.2119 34.9268C30.0888 34.8234 29.9862 34.741 29.9131 34.6846C29.8765 34.6563 29.8467 34.6344 29.8262 34.6191C29.8162 34.6117 29.8084 34.6057 29.8027 34.6016C29.8 34.5996 29.7976 34.5979 29.7959 34.5967C29.795 34.5961 29.7935 34.5951 29.793 34.5947H29.792L29.5 35L29.792 34.5938ZM29.5693 35.6924C29.7926 35.8799 30.0884 36.1469 30.3828 36.4648C30.998 37.1292 31.4998 37.9048 31.5 38.5996C31.5 39.0967 31.2948 39.5785 30.9219 39.9365C30.5482 40.2952 30.0369 40.5 29.5 40.5C28.9631 40.5 28.4518 40.2952 28.0781 39.9365C27.7052 39.5785 27.5 39.0967 27.5 38.5996C27.5002 37.9048 28.002 37.1292 28.6172 36.4648C28.9116 36.1469 29.2074 35.8799 29.4307 35.6924C29.4543 35.6726 29.4782 35.6547 29.5 35.6367C29.5218 35.6547 29.5458 35.6726 29.5693 35.6924ZM42 28C43.1046 28 44 28.8954 44 30C44 31.1046 43.1046 32 42 32C40.8954 32 40 31.1046 40 30C40 28.8954 40.8954 28 42 28ZM27.0938 24.377C26.2653 24.377 25.5938 25.0485 25.5938 25.877V31.2998H33.9844V25.877C33.9844 25.0485 33.3128 24.377 32.4844 24.377H27.0938ZM32.4844 25.377C32.7605 25.377 32.9844 25.6008 32.9844 25.877V30.2998H26.5938V25.877C26.5938 25.6008 26.8176 25.377 27.0938 25.377H32.4844Z" fill="#393028"/>
<defs>
<filter id="filter0_f_3050_8073" x="16.5" y="57" width="35" height="23.5" filterUnits="userSpaceOnUse" color-interpolation-filters="sRGB">
<feFlood flood-opacity="0" result="BackgroundImageFix"/>
<feBlend mode="normal" in="SourceGraphic" in2="BackgroundImageFix" result="shape"/>
<feGaussianBlur stdDeviation="4" result="effect1_foregroundBlur_3050_8073"/>
</filter>
</defs>
</svg>
