<svg width="114" height="115" viewBox="0 0 114 115" fill="none" xmlns="http://www.w3.org/2000/svg">
<path d="M40.6483 109C29.2818 109 18.8684 105.465 11.2695 98.2086C-7.50803 80.2817 -2.27133 46.0773 22.8912 21.9928C34.7718 10.6531 49.3355 3.09069 63.8955 0.774935C79.4799 -1.72618 93.2781 1.87371 102.731 10.8976C121.509 28.8246 116.27 63.0289 91.1091 87.1132C76.0988 101.443 57.3172 109 40.6483 109Z" fill="#B3BECD"/>
<path d="M42.6564 102C32.6858 102 23.5512 98.9187 16.8855 92.5946C0.414012 76.9703 5.00761 47.1591 27.08 26.168C37.5016 16.2849 50.2768 9.69372 63.0487 7.6754C76.7192 5.49553 88.8229 8.63305 97.1148 16.4979C113.587 32.1223 108.991 61.9335 86.9203 82.9243C73.7534 95.4135 57.2783 102 42.6564 102Z" fill="#ECE9E2"/>
<g clip-path="url(#clip0_2266_3596)">
<path d="M24.8351 47.1724C27.7567 47.1724 30.2071 48.9644 31.0709 51.6993H28.9817C28.2277 50.0801 26.8142 48.9798 24.8351 48.9798C22.1177 48.9798 20.0442 51.1491 20.0442 53.9627C20.0442 56.7763 22.1177 58.9457 24.8351 58.9457C26.8142 58.9457 28.2277 57.8533 28.9817 56.2262H31.0709C30.2071 58.9614 27.7567 60.7531 24.8351 60.7531C21.0024 60.7534 18.0652 57.7906 18.0652 53.9627C18.0652 50.1349 21.0024 47.1724 24.8351 47.1724Z" fill="black"/>
<path d="M42.6066 56.8318C42.6066 58.946 41.0752 60.5651 38.3499 60.5651H32.4283V47.3613H38.3265C40.9495 47.3613 42.4184 48.9254 42.4184 50.9451C42.4184 52.1557 41.9079 53.1929 40.7376 53.8295C42.002 54.4899 42.6069 55.5428 42.6069 56.8318H42.6066ZM38.2321 53.1302C39.74 53.1302 40.5097 52.3757 40.5097 51.0396C40.5097 49.7036 39.74 49.0983 38.2321 49.0983H34.313V53.1382H38.2321V53.1302ZM40.6275 56.7533C40.6275 55.4487 39.8184 54.7726 38.2478 54.7726H34.3053V58.8282H38.2478C39.8108 58.8282 40.6275 58.0894 40.6275 56.7533Z" fill="black"/>
<path d="M45.771 47.3613V60.5651H43.886V47.3613H45.771Z" fill="black"/>
<path d="M90.4064 60.5651L87.2259 51.6996L82.7726 60.7538L78.5322 51.7704L75.1393 60.5651H73.1602L77.5344 49.6642L76.4428 47.3613H78.5553L82.7966 56.8084L86.4326 49.4912L85.6788 47.3613H87.7126L92.4486 60.5651H90.4064Z" fill="black"/>
<path d="M95.7017 47.3613V60.5651H93.8168V47.3613H95.7017Z" fill="black"/>
<path d="M60.8761 58.699H59.3758V47.3613H51.2317V48.4931C51.2317 53.069 50.2151 56.7199 48.4185 58.699H47.1554V60.5651H60.8758V58.699H60.8761ZM53.0696 49.2021H57.4831V58.6986H50.6365C52.1391 56.4218 52.9758 53.1732 53.0696 49.2021Z" fill="black"/>
<path d="M65.872 60.6789C64.5257 60.6789 63.2924 60.2396 62.3924 59.3379C60.1684 57.1102 60.7887 52.8597 63.7688 49.8668C65.176 48.4576 66.9008 47.5179 68.6253 47.2301C70.4711 46.9193 72.1053 47.3666 73.2248 48.488C75.4488 50.7157 74.8284 54.9662 71.8484 57.9591C70.0706 59.7398 67.8462 60.6793 65.872 60.6793V60.6789ZM69.7453 49.0255C69.4884 49.0255 69.2235 49.0482 68.9511 49.0936C67.6124 49.3209 66.2431 50.0711 65.116 51.2075C62.9071 53.4199 62.2716 56.534 63.7391 58.0042C65.2066 59.4741 68.3084 58.8378 70.5248 56.6251C72.7333 54.4127 73.3693 51.2986 71.9013 49.8287C71.3795 49.3059 70.6306 49.0255 69.7533 49.0255H69.7453Z" fill="black"/>
</g>
<path d="M69 102L57.7749 114.005C56.7953 115.052 55.1115 114.976 54.23 113.845L45 102H55.9091H69Z" fill="#B3BECD"/>
<defs>
<clipPath id="clip0_2266_3596">
<rect width="78.5778" height="13.5111" fill="white" transform="translate(17.712 47.1338)"/>
</clipPath>
</defs>
</svg>
