<svg width="68" height="81" viewBox="0 0 68 81" fill="none" xmlns="http://www.w3.org/2000/svg">
<g filter="url(#filter0_f_3050_6505)">
<ellipse cx="34" cy="68.75" rx="9.5" ry="3.75" fill="#393028"/>
</g>
<path d="M24.2464 65C17.4663 65 11.2548 62.8917 6.72213 58.5648C-4.47847 47.8744 -1.35483 27.4773 13.6544 13.115C20.7411 6.35279 29.4282 1.84307 38.1131 0.462117C47.4091 -1.02937 55.6396 1.11735 61.278 6.49857C72.4789 17.189 69.3541 37.5861 54.3458 51.9482C45.3923 60.4934 34.1892 65 24.2464 65Z" fill="#393028"/>
<path d="M25.0373 61C19.1546 61 13.7652 59.1837 9.83244 55.4558C0.114267 46.2456 2.82449 28.6727 15.8472 16.2991C21.9959 10.4732 29.5333 6.58788 37.0687 5.39813C45.1343 4.11315 52.2755 5.96264 57.1677 10.5988C66.8861 19.8089 64.1749 37.3818 51.153 49.7554C43.3845 57.1174 33.6642 61 25.0373 61Z" fill="#ECE9E2"/>
<path d="M41 61L33.8887 67.9533C33.3097 68.5194 32.3723 68.4768 31.847 67.8605L26 61H32.8182H41Z" fill="#393028"/>
<path d="M27.333 21C27.213 21.0001 27.0982 21.0429 27.0088 21.1191L26.9287 21.207L23.5947 25.8066C23.5331 25.8918 23.5001 25.9945 23.5 26.0996V42.2002C23.5 42.9372 23.7826 43.6476 24.291 44.1738C24.8001 44.7007 25.495 45 26.2227 45H41.7773C42.505 45 43.1999 44.7007 43.709 44.1738C44.2174 43.6476 44.4999 42.9372 44.5 42.2002V26.0996C44.4999 25.9945 44.4669 25.8918 44.4053 25.8066L41.0713 21.207C41.0007 21.1096 40.8986 21.0413 40.7842 21.0137L40.667 21H27.333ZM43.5 42.2002C43.4999 42.6829 43.3141 43.1422 42.9893 43.4785C42.6648 43.8143 42.2284 44 41.7773 44H26.2227C25.7716 44 25.3352 43.8143 25.0107 43.4785C24.6859 43.1422 24.5 42.6829 24.5 42.2002V27H43.5V42.2002ZM29 30C28.7239 30 28.5 30.2239 28.5 30.5C28.5 31.9587 29.0799 33.3572 30.1113 34.3887C31.1428 35.4201 32.5413 36 34 36L34.2725 35.9932C35.632 35.9258 36.9216 35.3557 37.8887 34.3887C38.9201 33.3572 39.5 31.9587 39.5 30.5C39.5 30.2239 39.2761 30 39 30C38.7239 30 38.5 30.2239 38.5 30.5C38.5 31.6935 38.0256 32.8377 37.1816 33.6816C36.3904 34.4729 35.3351 34.9391 34.2227 34.9941L34 35C32.8065 35 31.6623 34.5256 30.8184 33.6816C29.9744 32.8377 29.5 31.6935 29.5 30.5C29.5 30.2239 29.2761 30 29 30ZM43.3096 26H24.6904L27.5879 22H40.4121L43.3096 26Z" fill="#393028"/>
<defs>
<filter id="filter0_f_3050_6505" x="16.5" y="57" width="35" height="23.5" filterUnits="userSpaceOnUse" color-interpolation-filters="sRGB">
<feFlood flood-opacity="0" result="BackgroundImageFix"/>
<feBlend mode="normal" in="SourceGraphic" in2="BackgroundImageFix" result="shape"/>
<feGaussianBlur stdDeviation="4" result="effect1_foregroundBlur_3050_6505"/>
</filter>
</defs>
</svg>
