<svg width="68" height="69" viewBox="0 0 68 69" fill="none" xmlns="http://www.w3.org/2000/svg">
<path d="M24.2464 65C17.4663 65 11.2548 62.8917 6.72213 58.5648C-4.47847 47.8744 -1.35483 27.4773 13.6544 13.115C20.7411 6.35279 29.4282 1.84307 38.1131 0.462117C47.4091 -1.02937 55.6396 1.11735 61.278 6.49857C72.4789 17.189 69.3541 37.5861 54.3458 51.9482C45.3923 60.4934 34.1892 65 24.2464 65Z" fill="#393028"/>
<path d="M25.0373 61C19.1546 61 13.7652 59.1837 9.83244 55.4558C0.114267 46.2456 2.82449 28.6727 15.8472 16.2991C21.9959 10.4732 29.5333 6.58788 37.0687 5.39813C45.1343 4.11315 52.2755 5.96264 57.1677 10.5988C66.8861 19.8089 64.1749 37.3818 51.153 49.7554C43.3845 57.1174 33.6642 61 25.0373 61Z" fill="#ECE9E2"/>
<path d="M41 61L33.8887 67.9533C33.3097 68.5194 32.3723 68.4768 31.847 67.8605L26 61H32.8182H41Z" fill="#393028"/>
<path d="M26.333 21C26.213 21.0001 26.0982 21.0429 26.0088 21.1191L25.9287 21.207L22.5947 25.8066C22.5331 25.8918 22.5001 25.9945 22.5 26.0996V42.2002C22.5 42.9372 22.7826 43.6476 23.291 44.1738C23.8001 44.7007 24.495 45 25.2227 45H40.7773C41.505 45 42.1999 44.7007 42.709 44.1738C43.2174 43.6476 43.4999 42.9372 43.5 42.2002V26.0996C43.4999 25.9945 43.4669 25.8918 43.4053 25.8066L40.0713 21.207C40.0007 21.1096 39.8986 21.0413 39.7842 21.0137L39.667 21H26.333ZM42.5 42.2002C42.4999 42.6829 42.3141 43.1422 41.9893 43.4785C41.6648 43.8143 41.2284 44 40.7773 44H25.2227C24.7716 44 24.3352 43.8143 24.0107 43.4785C23.6859 43.1422 23.5 42.6829 23.5 42.2002V27H42.5V42.2002ZM28 30C27.7239 30 27.5 30.2239 27.5 30.5C27.5 31.9587 28.0799 33.3572 29.1113 34.3887C30.1428 35.4201 31.5413 36 33 36L33.2725 35.9932C34.632 35.9258 35.9216 35.3557 36.8887 34.3887C37.9201 33.3572 38.5 31.9587 38.5 30.5C38.5 30.2239 38.2761 30 38 30C37.7239 30 37.5 30.2239 37.5 30.5C37.5 31.6935 37.0256 32.8377 36.1816 33.6816C35.3904 34.4729 34.3351 34.9391 33.2227 34.9941L33 35C31.8065 35 30.6623 34.5256 29.8184 33.6816C28.9744 32.8377 28.5 31.6935 28.5 30.5C28.5 30.2239 28.2761 30 28 30ZM42.3096 26H23.6904L26.5879 22H39.4121L42.3096 26Z" fill="#393028"/>
</svg>
