<svg width="68" height="81" viewBox="0 0 68 81" fill="none" xmlns="http://www.w3.org/2000/svg">
<path d="M24.2464 65C17.4663 65 11.2548 62.8917 6.72213 58.5648C-4.47847 47.8744 -1.35483 27.4773 13.6544 13.115C20.7411 6.35279 29.4282 1.84307 38.1131 0.462117C47.4091 -1.02937 55.6396 1.11735 61.278 6.49857C72.4789 17.189 69.3541 37.5861 54.3458 51.9482C45.3923 60.4934 34.1892 65 24.2464 65Z" fill="#393028"/>
<path d="M25.0373 61C19.1546 61 13.7652 59.1837 9.83244 55.4558C0.114267 46.2456 2.82449 28.6727 15.8472 16.2991C21.9959 10.4732 29.5333 6.58788 37.0687 5.39813C45.1343 4.11315 52.2755 5.96264 57.1677 10.5988C66.8861 19.8089 64.1749 37.3818 51.153 49.7554C43.3845 57.1174 33.6642 61 25.0373 61Z" fill="#ECE9E2"/>
<path d="M41 61L33.8887 67.9533C33.3097 68.5194 32.3723 68.4768 31.847 67.8605L26 61H32.8182H41Z" fill="#393028"/>
<path fill-rule="evenodd" clip-rule="evenodd" d="M41.231 28.1056C41.3035 28.0825 41.399 28.1287 41.4945 28.2559C41.4945 28.2559 41.4945 28.2559 45.8109 32.52C46.0631 32.7745 46.0631 33.16 45.8109 33.349C45.8109 33.349 45.8109 33.349 41.4945 37.6786C41.399 37.8058 41.3035 37.8367 41.231 37.7981C41.1584 37.7596 41.1125 37.6478 41.1125 37.4858V28.3832C41.1125 28.2251 41.1584 28.1287 41.231 28.1056Z" fill="#393028"/>
<path fill-rule="evenodd" clip-rule="evenodd" d="M33.8471 21H34.1527L34.4468 21.1234C34.4468 21.1234 34.4468 21.1234 38.8893 25.5802C39.0803 25.8347 39.0153 26.0275 38.6983 26.0275C38.6983 26.0275 38.6983 26.0275 36.8571 26.0275C36.5401 26.0275 36.288 26.2819 36.288 26.6019C36.288 26.6019 36.288 26.6019 36.288 29.9099C36.288 30.2299 36.0321 30.4843 35.6501 30.4843C35.6501 30.4843 35.6501 30.4843 32.4147 30.4843C32.0976 30.4843 31.8417 30.2299 31.8417 29.9099C31.8417 29.9099 31.8417 29.9099 31.8417 26.6019C31.8417 26.2819 31.5896 26.0275 31.2687 26.0275H29.3015C28.9845 26.0275 28.9195 25.8347 29.1105 25.5802C29.1105 25.5802 29.1105 25.5802 33.5568 21.1234L33.8471 21Z" fill="#393028"/>
<path fill-rule="evenodd" clip-rule="evenodd" d="M26.8875 28.0092C26.9677 28.0477 27.0173 28.1595 27.0173 28.3215V37.613C27.0173 37.775 26.9677 37.8714 26.8875 37.9022C26.8111 37.933 26.7003 37.9022 26.5704 37.8058C26.5704 37.8058 26.5704 37.8058 22.1891 33.3489C21.937 33.16 21.937 32.7745 22.1891 32.52C22.1891 32.52 22.1891 32.52 26.5704 28.1287C26.7003 28.0015 26.8111 27.9706 26.8875 28.0092Z" fill="#393028"/>
<path fill-rule="evenodd" clip-rule="evenodd" d="M32.4147 35.323C32.4147 35.323 32.4147 35.323 35.6501 35.323C36.0321 35.323 36.288 35.5775 36.288 35.8975C36.288 35.8975 36.288 35.8975 36.288 39.3982C36.288 39.7799 36.5401 40.0343 36.8571 40.0343H38.5722C38.8893 40.0343 39.0153 40.2232 38.7632 40.416C38.7632 40.416 38.7632 40.416 34.4468 44.8073C34.3169 44.9346 34.1603 45.0001 33.9999 45.0001C33.8433 45.0001 33.6829 44.9346 33.5568 44.8073C33.5568 44.8073 33.5568 44.8073 29.2404 40.416C28.9845 40.2232 29.1105 40.0343 29.4276 40.0343C29.4276 40.0343 29.4276 40.0343 31.2687 40.0343C31.5896 40.0343 31.8417 39.7799 31.8417 39.3982C31.8417 39.3982 31.8417 39.3982 31.8417 35.8975C31.8417 35.5775 32.0976 35.323 32.4147 35.323Z" fill="#393028"/>
<g filter="url(#filter0_f_3050_6599)">
<ellipse cx="34" cy="68.75" rx="9.5" ry="3.75" fill="#393028"/>
</g>
<defs>
<filter id="filter0_f_3050_6599" x="16.5" y="57" width="35" height="23.5" filterUnits="userSpaceOnUse" color-interpolation-filters="sRGB">
<feFlood flood-opacity="0" result="BackgroundImageFix"/>
<feBlend mode="normal" in="SourceGraphic" in2="BackgroundImageFix" result="shape"/>
<feGaussianBlur stdDeviation="4" result="effect1_foregroundBlur_3050_6599"/>
</filter>
</defs>
</svg>
