<svg width="68" height="81" viewBox="0 0 68 81" fill="none" xmlns="http://www.w3.org/2000/svg">
<g filter="url(#filter0_f_3050_6635)">
<ellipse cx="34" cy="68.75" rx="9.5" ry="3.75" fill="#393028"/>
</g>
<path d="M24.2464 65C17.4663 65 11.2548 62.8917 6.72213 58.5648C-4.47847 47.8744 -1.35483 27.4773 13.6544 13.115C20.7411 6.35279 29.4282 1.84307 38.1131 0.462117C47.4091 -1.02937 55.6396 1.11735 61.278 6.49857C72.4789 17.189 69.3541 37.5861 54.3458 51.9482C45.3923 60.4934 34.1892 65 24.2464 65Z" fill="#393028"/>
<path d="M25.0373 61C19.1546 61 13.7652 59.1837 9.83244 55.4558C0.114267 46.2456 2.82449 28.6727 15.8472 16.2991C21.9959 10.4732 29.5333 6.58788 37.0687 5.39813C45.1343 4.11315 52.2755 5.96264 57.1677 10.5988C66.8861 19.8089 64.1749 37.3818 51.153 49.7554C43.3845 57.1174 33.6642 61 25.0373 61Z" fill="#ECE9E2"/>
<path d="M41 61L33.8887 67.9533C33.3097 68.5194 32.3723 68.4768 31.847 67.8605L26 61H32.8182H41Z" fill="#393028"/>
<path d="M36.3904 26.9729C35.8913 22.6934 32.3113 19.5451 28.3113 20.054C24.3119 20.5632 21.5615 24.5161 22.0603 28.7952C22.4735 32.3386 24.9987 35.1041 28.1257 35.6624V40.1252C27.9177 40.1432 27.6827 40.183 27.4421 40.2639C27.0991 39.8811 26.508 39.4652 25.6824 39.4651C25.0076 39.4651 24.4154 39.7076 23.9919 40.1379C23.5699 40.5669 23.3425 41.1554 23.3425 41.7981C23.3426 42.2546 23.4287 42.6638 23.5408 42.9993H22.8572C22.581 42.9993 22.3572 43.2231 22.3572 43.4993C22.3574 43.7752 22.5812 43.9993 22.8572 43.9993H45.5017C45.7776 43.9992 46.0015 43.7752 46.0017 43.4993C46.0017 43.2232 45.7778 42.9994 45.5017 42.9993H42.9656C43.0181 42.8473 43.0486 42.6847 43.0486 42.5149V40.4124H43.4714C44.5972 40.4123 45.5103 39.499 45.5105 38.3733C45.5105 37.2473 44.5974 36.3343 43.4714 36.3342H42.0642V35.2825H42.4871C43.6127 35.2822 44.5259 34.3691 44.5261 33.2434C44.5261 32.1175 43.6129 31.2046 42.4871 31.2043H35.8103C36.3429 29.925 36.5652 28.472 36.3904 26.9729ZM42.0486 42.5149C42.0484 42.7823 41.8317 42.9992 41.5642 42.9993C41.2968 42.9992 41.08 42.7823 41.0798 42.5149V40.7512H42.0486V42.5149ZM40.0798 42.5149C40.0799 42.6847 40.1094 42.8474 40.1619 42.9993H35.0886C35.1411 42.8473 35.1716 42.6847 35.1716 42.5149V40.4124H40.0798V42.5149ZM34.1716 42.5149C34.1715 42.7823 33.9547 42.9992 33.6873 42.9993C33.4198 42.9992 33.203 42.7823 33.2029 42.5149V40.7512H34.1716V42.5149ZM32.0359 35.1448C32.2626 35.2318 32.508 35.2825 32.7654 35.2825H33.1873V36.3342H31.781C30.655 36.3342 29.7419 37.2473 29.7419 38.3733C29.7422 39.4991 30.6551 40.4124 31.781 40.4124H32.2029V42.5149C32.2029 42.6847 32.2324 42.8474 32.2849 42.9993H31.2332C31.2332 42.9959 31.2341 42.9919 31.2341 42.9885C31.2341 42.1098 30.9513 41.384 30.4626 40.8752C30.095 40.4926 29.6282 40.251 29.1257 40.1555V35.7639C29.4588 35.7721 29.7966 35.7574 30.1375 35.7141C30.7487 35.6364 31.3338 35.4771 31.8826 35.2473C31.9414 35.2227 31.9922 35.1865 32.0359 35.1448ZM25.6824 40.4651C26.323 40.4653 26.728 40.9164 26.8357 41.1174L27.0789 41.5715L27.5251 41.3147C27.8683 41.1175 28.2631 41.1096 28.6257 41.1096C29.0613 41.1097 29.4551 41.2711 29.741 41.5686C30.0253 41.8647 30.2341 42.329 30.2341 42.9885C30.2342 42.9919 30.235 42.9959 30.2351 42.9993H24.6169C24.4943 42.7504 24.3427 42.3213 24.3425 41.7981C24.3425 41.3937 24.4831 41.0645 24.7048 40.8391C24.9252 40.6152 25.2535 40.4651 25.6824 40.4651ZM43.4714 37.3342C44.0451 37.3343 44.5105 37.7996 44.5105 38.3733C44.5103 38.9468 44.0449 39.4123 43.4714 39.4124H31.781C31.2074 39.4124 30.7422 38.9468 30.7419 38.3733C30.7419 37.7996 31.2073 37.3342 31.781 37.3342H43.4714ZM41.0642 35.2825V36.3342H34.1873V35.2825H41.0642ZM28.4275 21.0481C31.7943 20.6198 34.9536 23.2784 35.3992 27.0989C35.5624 28.4984 35.3333 29.8447 34.8113 31.0071C34.7825 31.0713 34.7685 31.1383 34.7673 31.2043H32.7654C31.6394 31.2043 30.7263 32.1174 30.7263 33.2434C30.7264 33.7014 30.8805 34.1218 31.1355 34.4622C30.779 34.5833 30.4073 34.672 30.0222 34.7209C29.7211 34.7592 29.4217 34.7707 29.1257 34.761V30.9348L32.4294 27.4592C32.6196 27.2591 32.6118 26.9424 32.4119 26.7522C32.2117 26.562 31.895 26.5706 31.7048 26.7708L29.1257 29.4836V25.4358C29.1257 25.1598 28.9017 24.936 28.6257 24.9358C28.3496 24.9358 28.1257 25.1596 28.1257 25.4358V30.7883L26.533 29.1047C26.3433 28.9042 26.0265 28.8957 25.8259 29.0852C25.6253 29.275 25.6166 29.5916 25.8064 29.7922L28.1257 32.2434V34.6389C25.544 34.085 23.4116 31.7567 23.0515 28.6692C22.6062 24.8491 25.0611 21.4767 28.4275 21.0481ZM42.4871 32.2043C43.0606 32.2046 43.5261 32.6698 43.5261 33.2434C43.5259 33.8168 43.0604 34.2822 42.4871 34.2825H32.7654C32.1918 34.2825 31.7266 33.8169 31.7263 33.2434C31.7263 32.6697 32.1916 32.2043 32.7654 32.2043H42.4871Z" fill="#393028"/>
<defs>
<filter id="filter0_f_3050_6635" x="16.5" y="57" width="35" height="23.5" filterUnits="userSpaceOnUse" color-interpolation-filters="sRGB">
<feFlood flood-opacity="0" result="BackgroundImageFix"/>
<feBlend mode="normal" in="SourceGraphic" in2="BackgroundImageFix" result="shape"/>
<feGaussianBlur stdDeviation="4" result="effect1_foregroundBlur_3050_6635"/>
</filter>
</defs>
</svg>
