<svg width="68" height="81" viewBox="0 0 68 81" fill="none" xmlns="http://www.w3.org/2000/svg">
<path d="M24.2464 65C17.4663 65 11.2548 62.8917 6.72213 58.5648C-4.47847 47.8744 -1.35483 27.4773 13.6544 13.115C20.7411 6.35279 29.4282 1.84307 38.1131 0.462117C47.4091 -1.02937 55.6396 1.11735 61.278 6.49857C72.4789 17.189 69.3541 37.5861 54.3458 51.9482C45.3923 60.4934 34.1892 65 24.2464 65Z" fill="#393028"/>
<path d="M25.0373 61C19.1546 61 13.7652 59.1837 9.83244 55.4558C0.114267 46.2456 2.82449 28.6727 15.8472 16.2991C21.9959 10.4732 29.5333 6.58788 37.0687 5.39813C45.1343 4.11315 52.2755 5.96264 57.1677 10.5988C66.8861 19.8089 64.1749 37.3818 51.153 49.7554C43.3845 57.1174 33.6642 61 25.0373 61Z" fill="#ECE9E2"/>
<path d="M41 61L33.8887 67.9533C33.3097 68.5194 32.3723 68.4768 31.847 67.8605L26 61H32.8182H41Z" fill="#393028"/>
<path d="M31 21V30H22V36H31V45H37V36H46V30H37V21H31ZM36 22V31H45V35H36V44H32V35H23V31H32V22H36Z" fill="#393028"/>
<g filter="url(#filter0_f_3050_6557)">
<ellipse cx="34" cy="68.75" rx="9.5" ry="3.75" fill="#393028"/>
</g>
<defs>
<filter id="filter0_f_3050_6557" x="16.5" y="57" width="35" height="23.5" filterUnits="userSpaceOnUse" color-interpolation-filters="sRGB">
<feFlood flood-opacity="0" result="BackgroundImageFix"/>
<feBlend mode="normal" in="SourceGraphic" in2="BackgroundImageFix" result="shape"/>
<feGaussianBlur stdDeviation="4" result="effect1_foregroundBlur_3050_6557"/>
</filter>
</defs>
</svg>
