<svg width="68" height="81" viewBox="0 0 68 81" fill="none" xmlns="http://www.w3.org/2000/svg">
<path d="M24.2464 65C17.4663 65 11.2548 62.8917 6.72213 58.5648C-4.47847 47.8744 -1.35483 27.4773 13.6544 13.115C20.7411 6.35279 29.4282 1.84307 38.1131 0.462117C47.4091 -1.02937 55.6396 1.11735 61.278 6.49857C72.4789 17.189 69.3541 37.5861 54.3458 51.9482C45.3923 60.4934 34.1892 65 24.2464 65Z" fill="#393028"/>
<path d="M25.0373 61C19.1546 61 13.7652 59.1837 9.83244 55.4558C0.114267 46.2456 2.82449 28.6727 15.8472 16.2991C21.9959 10.4732 29.5333 6.58788 37.0687 5.39813C45.1343 4.11315 52.2755 5.96264 57.1677 10.5988C66.8861 19.8089 64.1749 37.3818 51.153 49.7554C43.3845 57.1174 33.6642 61 25.0373 61Z" fill="#ECE9E2"/>
<path d="M41 61L33.8887 67.9533C33.3097 68.5194 32.3723 68.4768 31.847 67.8605L26 61H32.8182H41Z" fill="#393028"/>
<path d="M38.5518 21.9014C37.8586 21.4439 37.1014 21.5325 36.5439 21.9463C36.0064 22.3455 35.665 23.0321 35.665 23.7832V43.0107C35.6653 44.1096 36.5564 44.9999 37.6553 45C38.7541 44.9999 39.6452 44.1096 39.6455 43.0107V36.5918C40.4262 36.3735 41 35.6596 41 34.8086V26.6748C40.9999 24.2531 39.8331 22.7472 38.5518 21.9014ZM27.4951 21C27.219 21.0001 26.9951 21.2239 26.9951 21.5V29.1299L27 29.2764C27.0443 30.0073 27.4175 30.6824 28.0195 31.1084C28.3966 31.3753 28.621 31.8086 28.6211 32.2705V43.1455C28.6211 44.1698 29.4514 44.9999 30.4756 45C31.4998 44.9999 32.3301 44.1697 32.3301 43.1455V32.2705C32.3302 31.8085 32.5545 31.3753 32.9316 31.1084C33.5738 30.6541 33.9559 29.9164 33.9561 29.1299V21.5C33.9561 21.224 33.732 21.0002 33.4561 21C33.18 21.0001 32.9561 21.2239 32.9561 21.5V25.5996H30.9756V21.5C30.9756 21.2239 30.7516 21.0001 30.4756 21C30.1995 21.0001 29.9756 21.2239 29.9756 21.5V25.5996H27.9951V21.5C27.9951 21.2239 27.7713 21 27.4951 21ZM38.6455 36.6631V43.0107C38.6452 43.5573 38.2019 43.9999 37.6553 44C37.1087 43.9999 36.6653 43.5573 36.665 43.0107V36.6631H38.6455ZM32.9561 26.5996V29.1299C32.9559 29.5918 32.7315 30.0251 32.3545 30.292C31.7124 30.7463 31.3302 31.484 31.3301 32.2705V43.1455C31.3301 43.6175 30.9475 43.9999 30.4756 44C30.0036 43.9999 29.6211 43.6175 29.6211 43.1455V32.2705C29.621 31.4839 29.2388 30.7463 28.5967 30.292C28.2665 30.0584 28.0539 29.6971 28.0059 29.3008L27.9951 29.1299V26.5996H32.9561ZM37.1406 22.749C37.3864 22.5667 37.6853 22.528 38.001 22.7363C39.0387 23.4214 39.9999 24.6311 40 26.6748V34.8086C40 35.2801 39.6178 35.6629 39.1455 35.6631H36.665V23.7832C36.665 23.3255 36.875 22.9462 37.1406 22.749Z" fill="#393028"/>
<g filter="url(#filter0_f_3050_6533)">
<ellipse cx="34" cy="68.75" rx="9.5" ry="3.75" fill="#393028"/>
</g>
<defs>
<filter id="filter0_f_3050_6533" x="16.5" y="57" width="35" height="23.5" filterUnits="userSpaceOnUse" color-interpolation-filters="sRGB">
<feFlood flood-opacity="0" result="BackgroundImageFix"/>
<feBlend mode="normal" in="SourceGraphic" in2="BackgroundImageFix" result="shape"/>
<feGaussianBlur stdDeviation="4" result="effect1_foregroundBlur_3050_6533"/>
</filter>
</defs>
</svg>
