<svg width="68" height="81" viewBox="0 0 68 81" fill="none" xmlns="http://www.w3.org/2000/svg">
<g filter="url(#filter0_f_3050_6521)">
<ellipse cx="34" cy="68.75" rx="9.5" ry="3.75" fill="#393028"/>
</g>
<path d="M24.2464 65C17.4663 65 11.2548 62.8917 6.72213 58.5648C-4.47847 47.8744 -1.35483 27.4773 13.6544 13.115C20.7411 6.35279 29.4282 1.84307 38.1131 0.462117C47.4091 -1.02937 55.6396 1.11735 61.278 6.49857C72.4789 17.189 69.3541 37.5861 54.3458 51.9482C45.3923 60.4934 34.1892 65 24.2464 65Z" fill="#393028"/>
<path d="M25.0373 61C19.1546 61 13.7652 59.1837 9.83244 55.4558C0.114267 46.2456 2.82449 28.6727 15.8472 16.2991C21.9959 10.4732 29.5333 6.58788 37.0687 5.39813C45.1343 4.11315 52.2755 5.96264 57.1677 10.5988C66.8861 19.8089 64.1749 37.3818 51.153 49.7554C43.3845 57.1174 33.6642 61 25.0373 61Z" fill="#ECE9E2"/>
<path d="M41 61L33.8887 67.9533C33.3097 68.5194 32.3723 68.4768 31.847 67.8605L26 61H32.8182H41Z" fill="#393028"/>
<path d="M26.8408 21L26.8135 21.0029C26.4685 21.0407 25.9317 21.1786 25.5635 21.5361C25.3663 21.7277 25.2124 21.9899 25.1836 22.3213C25.1555 22.6452 25.2521 22.9778 25.4453 23.3105C26.0357 24.327 27.5697 26.8421 28.4189 28.2275C27.6525 29.1189 26.7944 30.1291 26.4707 30.5537C26.1695 30.9488 26.0002 31.4523 25.9043 31.8838C25.8069 32.3223 25.7734 32.739 25.7734 33.001V36.2041H24.8867C24.2022 36.2042 23.7106 36.4517 23.3975 36.8184C23.1003 37.1664 23 37.5797 23 37.874V40.7979C23 41.4673 23.3471 41.91 23.7607 42.1611C24.1479 42.3962 24.5909 42.4677 24.8867 42.4678H25.7764C25.8037 43.3329 26.1514 43.9526 26.6084 44.3623C27.0682 44.7745 27.6168 44.9568 28.0029 44.999L28.0293 45.002H39.3506C40.5242 45.0019 41.316 44.5492 41.8027 43.9355C42.1799 43.4598 42.3517 42.9131 42.4053 42.4678H43.3135C43.8807 42.4677 44.3087 42.3107 44.6006 42.0449C44.8857 41.7852 45.002 41.4544 45.002 41.1875V38.2637C45.0019 37.5269 44.7633 36.9971 44.3994 36.6533C44.049 36.3223 43.6247 36.2042 43.3135 36.2041H42.4258V33.001C42.4258 31.8003 41.9942 30.901 41.7295 30.5537L41.7139 30.5322L41.6953 30.5137L40.5732 29.3115C40.2393 28.9505 39.8937 28.5716 39.5791 28.2227C40.4929 26.7798 42.1171 24.1779 42.5703 23.2861C42.753 22.9266 42.8306 22.5635 42.7559 22.2168C42.6799 21.8647 42.4638 21.6072 42.2139 21.4316C41.7417 21.0999 41.0716 21 40.5391 21C39.5373 21.0001 38.8115 21.6423 38.5566 21.9766L38.5342 22.0059L38.5166 22.0381L36.2939 26.0723C36.2542 26.0707 36.2164 26.0684 36.1807 26.0684H35.6895V25.0088C35.6895 24.7433 35.5979 24.3765 35.3281 24.0693C35.0432 23.7448 34.6016 23.5342 34.001 23.5342C33.4004 23.5342 32.9588 23.7449 32.6738 24.0693C32.4041 24.3765 32.3125 24.7433 32.3125 25.0088V26.0684H32.2178C32.0418 26.0684 31.8727 26.0773 31.7109 26.0938L29.6934 22.0557L29.6914 22.0527C29.5956 21.8644 29.4133 21.613 29.1533 21.4033C28.8888 21.19 28.5171 21 28.0566 21H26.8408ZM41.4258 39.9336V42.1621C41.4258 42.4615 41.3229 42.9307 41.0195 43.3135C40.7335 43.6742 40.2372 44.0019 39.3506 44.002H28.0957C27.8862 43.9755 27.5525 43.8647 27.2764 43.6172C27.0098 43.3781 26.7734 42.9936 26.7734 42.3574V39.9336H41.4258ZM43.3135 37.2041C43.3986 37.2042 43.5683 37.2433 43.7129 37.3799C43.8441 37.5038 44.0019 37.7534 44.002 38.2637V41.1875C44.0018 41.1835 43.9976 41.242 43.9277 41.3057C43.863 41.3646 43.6968 41.4677 43.3135 41.4678H42.4258V37.2041H43.3135ZM25.7734 37.2041V41.4678H24.8867C24.7202 41.4677 24.4698 41.4223 24.2793 41.3066C24.1151 41.2069 24 41.064 24 40.7979V37.874C24 37.7785 24.0385 37.607 24.1572 37.4678C24.2601 37.3472 24.4621 37.2041 24.8867 37.2041H25.7734ZM36.1807 27.0684C36.2629 27.0684 36.3779 27.0752 36.5117 27.0928C36.7381 27.1226 36.9974 27.1813 37.2324 27.2793C37.4704 27.3785 37.6519 27.5048 37.7637 27.6514C37.9284 27.8675 38.2307 28.2163 38.5811 28.6094C39.3287 29.448 40.3539 30.5489 40.9443 31.1748C41.0837 31.3689 41.4258 32.0444 41.4258 33.001V38.9336H26.7734V33.001C26.7734 32.8082 26.8 32.4644 26.8809 32.1006C26.9632 31.7299 27.0915 31.3888 27.2656 31.1602C27.6005 30.7208 28.5866 29.5632 29.4141 28.6035C29.713 28.2569 29.9885 27.9385 30.2012 27.6943C30.3399 27.5649 30.7935 27.2625 31.5146 27.1309C31.7273 27.0921 31.9624 27.0684 32.2178 27.0684H36.1807ZM30.0381 31.1367C29.7775 31.1368 29.3858 31.1968 29.041 31.4004C28.6704 31.6192 28.3496 32.0129 28.3496 32.6113V35.9248C28.3496 36.1917 28.4659 36.5216 28.751 36.7812C29.0429 37.0471 29.4707 37.2041 30.0381 37.2041H38.3604C38.6037 37.204 38.9586 37.1366 39.2676 36.918C39.6028 36.6805 39.8506 36.2858 39.8506 35.7295V32.6113C39.8506 32.3672 39.78 32.0126 39.5557 31.7061C39.313 31.3747 38.9157 31.1369 38.3604 31.1367H30.0381ZM38.3604 32.1367C38.5966 32.1368 38.6945 32.2225 38.749 32.2969C38.8218 32.3964 38.8506 32.5306 38.8506 32.6113V35.7295C38.8506 35.9527 38.7679 36.0466 38.6904 36.1016C38.5872 36.1747 38.4471 36.204 38.3604 36.2041H30.0381C29.6548 36.2041 29.4885 36.1009 29.4238 36.042C29.3526 35.9769 29.3496 35.9179 29.3496 35.9248V32.6113C29.3496 32.43 29.4251 32.3353 29.5498 32.2617C29.7001 32.1731 29.9025 32.1368 30.0381 32.1367H38.3604ZM40.5391 22C40.997 22 41.4173 22.0945 41.6387 22.25C41.7355 22.318 41.7676 22.3779 41.7783 22.4277C41.7902 22.4831 41.7932 22.6078 41.6787 22.833C41.2736 23.6301 39.8227 25.964 38.8887 27.4434C38.7461 27.2773 38.6331 27.1413 38.5596 27.0449C38.3049 26.7109 37.9514 26.4948 37.6172 26.3555C37.524 26.3166 37.4295 26.2835 37.3359 26.2539L39.3691 22.5625C39.5276 22.3697 39.9771 22.0001 40.5391 22ZM28.0566 22C28.2301 22 28.3871 22.0702 28.5254 22.1816C28.6678 22.2965 28.7633 22.4342 28.7998 22.5059V22.5049L30.7012 26.3086C30.1196 26.5042 29.7022 26.7817 29.4893 26.9912L29.4756 27.0049L29.4629 27.0195C29.3579 27.1401 29.2373 27.2795 29.1055 27.4316C28.2351 26.0101 26.8567 23.7505 26.3096 22.8086C26.1858 22.5956 26.1744 22.4678 26.1797 22.4072C26.1844 22.3545 26.2057 22.3074 26.2607 22.2539C26.3946 22.1239 26.6612 22.0296 26.9062 22H28.0566ZM34.001 24.5342C34.3513 24.5342 34.5045 24.6479 34.5762 24.7295C34.663 24.8284 34.6895 24.9494 34.6895 25.0088V26.0684H33.3125V25.0088C33.3125 24.9494 33.3389 24.8284 33.4258 24.7295C33.4975 24.6479 33.6507 24.5342 34.001 24.5342Z" fill="#393028"/>
<defs>
<filter id="filter0_f_3050_6521" x="16.5" y="57" width="35" height="23.5" filterUnits="userSpaceOnUse" color-interpolation-filters="sRGB">
<feFlood flood-opacity="0" result="BackgroundImageFix"/>
<feBlend mode="normal" in="SourceGraphic" in2="BackgroundImageFix" result="shape"/>
<feGaussianBlur stdDeviation="4" result="effect1_foregroundBlur_3050_6521"/>
</filter>
</defs>
</svg>
