<svg width="68" height="81" viewBox="0 0 68 81" fill="none" xmlns="http://www.w3.org/2000/svg">
<g filter="url(#filter0_f_3050_8017)">
<ellipse cx="34" cy="68.75" rx="9.5" ry="3.75" fill="#393028"/>
</g>
<path d="M24.2464 65C17.4663 65 11.2548 62.8917 6.72213 58.5648C-4.47847 47.8744 -1.35483 27.4773 13.6544 13.115C20.7411 6.35279 29.4282 1.84307 38.1131 0.462117C47.4091 -1.02937 55.6396 1.11735 61.278 6.49857C72.4789 17.189 69.3541 37.5861 54.3458 51.9482C45.3923 60.4934 34.1892 65 24.2464 65Z" fill="#393028"/>
<path d="M25.0373 61C19.1546 61 13.7652 59.1837 9.83244 55.4558C0.114267 46.2456 2.82449 28.6727 15.8472 16.2991C21.9959 10.4732 29.5333 6.58788 37.0687 5.39813C45.1343 4.11315 52.2755 5.96264 57.1677 10.5988C66.8861 19.8089 64.1749 37.3818 51.153 49.7554C43.3845 57.1174 33.6642 61 25.0373 61Z" fill="#ECE9E2"/>
<path d="M41 61L33.8887 67.9533C33.3097 68.5194 32.3723 68.4768 31.847 67.8605L26 61H32.8182H41Z" fill="#393028"/>
<path d="M37.8262 26C36.9977 26 36.3262 26.6716 36.3262 27.5V31.5H31.6709V27.5C31.6709 26.6716 30.9993 26.0001 30.1709 26H28.1152C27.4462 26 26.8799 26.4381 26.6865 27.043C26.5734 27.0157 26.4555 27 26.334 27H25.2969C24.4686 27 23.7971 27.6717 23.7969 28.5V31.5098C22.7863 31.6102 21.9971 32.463 21.9971 33.5C21.9971 34.537 22.7863 35.3888 23.7969 35.4893V38.5039L23.8047 38.6572C23.8814 39.4137 24.5202 40.0039 25.2969 40.0039H26.334C26.4556 40.0039 26.5733 39.9873 26.6865 39.96C26.8793 40.5657 27.4456 41.0049 28.1152 41.0049H30.1709C30.9992 41.0048 31.6709 40.3332 31.6709 39.5049V35.5H36.3262V39.5049C36.3262 40.3333 36.9978 41.0049 37.8262 41.0049H39.8818C40.5559 41.0049 41.1264 40.5602 41.3154 39.9482C41.4384 39.9808 41.567 40 41.7002 40H42.7002C43.5286 40 44.2002 39.3284 44.2002 38.5V35.4893C45.2093 35.3874 45.9971 34.536 45.9971 33.5C45.9971 32.464 45.2094 31.6115 44.2002 31.5098V28.5C44.2002 27.6716 43.5286 27 42.7002 27H41.7002C41.5667 27 41.4377 27.019 41.3145 27.0518C41.1239 26.4422 40.5542 26 39.8818 26H37.8262ZM39.8818 27C40.158 27 40.3818 27.2239 40.3818 27.5V27.7832C40.2658 27.9961 40.2002 28.2404 40.2002 28.5V38.5L40.208 38.6533C40.2284 38.8545 40.2899 39.0432 40.3818 39.2129V39.5049L40.3721 39.6055C40.3321 39.801 40.178 39.9553 39.9824 39.9951L39.8818 40.0049H37.8262L37.7256 39.9951C37.5301 39.9552 37.3759 39.8009 37.3359 39.6055L37.3262 39.5049V27.5C37.3262 27.2583 37.4976 27.0563 37.7256 27.0098L37.8262 27H39.8818ZM30.1709 27C30.447 27.0001 30.6709 27.2239 30.6709 27.5V39.5049L30.6611 39.6055C30.6212 39.801 30.467 39.9553 30.2715 39.9951L30.1709 40.0049H28.1152L28.0146 39.9951C27.8192 39.9552 27.6649 39.8009 27.625 39.6055L27.6152 39.5049V39.2812C27.7531 39.0544 27.834 38.7887 27.834 38.5039V28.5C27.8339 28.2151 27.7532 27.9495 27.6152 27.7227V27.5C27.6152 27.2583 27.7867 27.0563 28.0146 27.0098L28.1152 27H30.1709ZM26.334 28C26.4383 28 26.5351 28.0323 26.6152 28.0869V38.917C26.535 38.9717 26.4384 39.0039 26.334 39.0039H25.2969C25.0207 39.0039 24.7969 38.78 24.7969 38.5039V28.5C24.797 28.2584 24.9684 28.0563 25.1963 28.0098L25.2969 28H26.334ZM42.8008 28.0098C43.0287 28.0563 43.2002 28.2583 43.2002 28.5V38.5L43.1904 38.6006C43.1439 38.8286 42.9419 39 42.7002 39H41.7002C41.5793 39 41.4684 38.9571 41.3818 38.8857V28.1172C41.4685 28.045 41.5786 28 41.7002 28H42.7002L42.8008 28.0098ZM36.3262 34.5H31.6709V32.5H36.3262V34.5ZM23.7969 34.4795C23.3406 34.3867 22.9971 33.9837 22.9971 33.5C22.9971 33.0162 23.3405 32.6122 23.7969 32.5195V34.4795ZM44.2002 32.5205C44.6551 32.6144 44.9971 33.0173 44.9971 33.5C44.9971 33.9826 44.655 34.3846 44.2002 34.4785V32.5205Z" fill="#393028"/>
<defs>
<filter id="filter0_f_3050_8017" x="16.5" y="57" width="35" height="23.5" filterUnits="userSpaceOnUse" color-interpolation-filters="sRGB">
<feFlood flood-opacity="0" result="BackgroundImageFix"/>
<feBlend mode="normal" in="SourceGraphic" in2="BackgroundImageFix" result="shape"/>
<feGaussianBlur stdDeviation="4" result="effect1_foregroundBlur_3050_8017"/>
</filter>
</defs>
</svg>
