<svg width="68" height="81" viewBox="0 0 68 81" fill="none" xmlns="http://www.w3.org/2000/svg">
<g filter="url(#filter0_f_3144_6557)">
<ellipse cx="34" cy="68.75" rx="9.5" ry="3.75" fill="#393028"/>
</g>
<path d="M24.2464 65C17.4663 65 11.2548 62.8917 6.72213 58.5648C-4.47847 47.8744 -1.35483 27.4773 13.6544 13.115C20.7411 6.35279 29.4282 1.84307 38.1131 0.462117C47.4091 -1.02937 55.6396 1.11735 61.278 6.49857C72.4789 17.189 69.3541 37.5861 54.3458 51.9482C45.3923 60.4934 34.1892 65 24.2464 65Z" fill="#393028"/>
<path d="M25.0373 61C19.1546 61 13.7652 59.1837 9.83244 55.4558C0.114267 46.2456 2.82449 28.6727 15.8472 16.2991C21.9959 10.4732 29.5333 6.58788 37.0687 5.39813C45.1343 4.11315 52.2755 5.96264 57.1677 10.5988C66.8861 19.8089 64.1749 37.3818 51.153 49.7554C43.3845 57.1174 33.6642 61 25.0373 61Z" fill="#ECE9E2"/>
<path d="M41 61L33.8887 67.9533C33.3097 68.5194 32.3723 68.4768 31.847 67.8605L26 61H32.8182H41Z" fill="#393028"/>
<path fill-rule="evenodd" clip-rule="evenodd" d="M22.5 22C22.2239 22 22 22.2239 22 22.5C22 22.7761 22.2239 23 22.5 23H24.4874L25.0306 24.8589L26.3922 29.518L27.7537 34.1772L28.6614 37.2833L28.7666 37.643H29.1413H42.4373C42.7134 37.643 42.9373 37.4192 42.9373 37.143C42.9373 36.8669 42.7134 36.643 42.4373 36.643H29.5161L28.9007 34.5369H32.3507H38.311H42.8958H43.3004L43.3848 34.1412L45.3715 24.8229L45.5004 24.2186H44.8825H39.0751H31.4338H25.8853L25.3421 22.3598L25.237 22H24.8622H22.5ZM31.7991 33.5369H28.6084L27.5391 29.8778H31.439L31.7991 33.5369ZM31.3406 28.8778H27.2469L26.1776 25.2186H30.9805L31.3406 28.8778ZM32.3454 28.8778L31.9854 25.2186H38.5324L38.2323 28.8778H32.3454ZM39.2357 28.8778L39.5358 25.2186H44.2647L43.4845 28.8778H39.2357ZM39.1537 29.8778H43.2713L42.4911 33.5369H38.8536L39.1537 29.8778ZM38.1503 29.8778L37.8503 33.5369H32.8039L32.4438 29.8778H38.1503ZM39.5996 39.5315C39.8521 39.2719 40.1909 39.1193 40.5607 39.1193C40.9305 39.1193 41.2693 39.2719 41.5217 39.5315C41.7746 39.7916 41.934 40.1531 41.934 40.5598C41.934 40.9665 41.7746 41.328 41.5217 41.588C41.2692 41.8477 40.9304 42.0003 40.5607 42.0003C40.1908 42.0003 39.852 41.8477 39.5996 41.5881C39.3467 41.328 39.1873 40.9664 39.1873 40.5598C39.1873 40.153 39.3467 39.7916 39.5996 39.5315ZM30.7059 39.5321C30.9583 39.2725 31.2977 39.1193 31.6675 39.1193C32.0373 39.1193 32.3761 39.2719 32.6285 39.5315C32.8814 39.7916 33.0408 40.1531 33.0408 40.5598C33.0408 40.9665 32.8815 41.328 32.6286 41.588C32.3761 41.8476 32.0373 42.0003 31.6675 42.0003C31.2977 42.0003 30.9589 41.8477 30.7065 41.5881C30.4535 41.328 30.2942 40.9664 30.2942 40.5598C30.2942 40.1526 30.4538 39.7908 30.7059 39.5321ZM34.0408 40.5598C34.0408 41.2336 33.7752 41.8433 33.3455 42.2852C32.9157 42.7271 32.3227 43.0003 31.6675 43.0003C31.0123 43.0003 30.4193 42.7271 29.9896 42.2852C29.5598 41.8433 29.2942 41.2335 29.2942 40.5598C29.2942 39.886 29.5598 39.2755 29.9896 38.8343C30.4193 38.3924 31.0123 38.1193 31.6675 38.1193C32.3227 38.1193 32.9157 38.3924 33.3455 38.8343C33.7752 39.2762 34.0408 39.886 34.0408 40.5598ZM38.8827 38.8343C39.3124 38.3924 39.9055 38.1193 40.5607 38.1193C41.2159 38.1193 41.8089 38.3924 42.2386 38.8343C42.6684 39.2762 42.934 39.886 42.934 40.5598C42.934 41.2336 42.6684 41.8433 42.2386 42.2852C41.8089 42.7271 41.2159 43.0003 40.5607 43.0003C39.9054 43.0003 39.3124 42.7271 38.8827 42.2852C38.453 41.8433 38.1873 41.2335 38.1873 40.5598C38.1873 39.886 38.4529 39.2762 38.8827 38.8343Z" fill="#221A22"/>
<defs>
<filter id="filter0_f_3144_6557" x="16.5" y="57" width="35" height="23.5" filterUnits="userSpaceOnUse" color-interpolation-filters="sRGB">
<feFlood flood-opacity="0" result="BackgroundImageFix"/>
<feBlend mode="normal" in="SourceGraphic" in2="BackgroundImageFix" result="shape"/>
<feGaussianBlur stdDeviation="4" result="effect1_foregroundBlur_3144_6557"/>
</filter>
</defs>
</svg>
