<svg width="335" height="58" viewBox="0 0 335 58" fill="none" xmlns="http://www.w3.org/2000/svg">
<g clip-path="url(#clip0_2600_18979)">
<path d="M29.1244 -0.293945C41.7205 -0.293945 52.2855 7.38443 56.0095 19.1023H47.0022C43.7514 12.1648 37.657 7.45023 29.1244 7.45023C17.4087 7.45023 8.46908 16.745 8.46908 28.8004C8.46908 40.8557 17.4087 50.1505 29.1244 50.1505C37.657 50.1505 43.7514 45.4702 47.0022 38.4984H56.0095C52.2855 50.2178 41.7205 57.8947 29.1244 57.8947C12.6002 57.896 -0.0634766 45.2013 -0.0634766 28.8004C-0.0634766 12.3994 12.6002 -0.293945 29.1244 -0.293945Z" fill="#393028"/>
<path d="M105.742 41.0918C105.742 50.1505 99.1397 57.0878 87.3895 57.0878H61.8594V0.51416H87.2887C98.5974 0.51416 104.931 7.21558 104.931 15.8695C104.931 21.0562 102.73 25.5004 97.684 28.2281C103.136 31.0575 105.743 35.569 105.743 41.0918H105.742ZM86.8817 25.2316C93.3831 25.2316 96.7016 21.9988 96.7016 16.2743C96.7016 10.5498 93.3831 7.95652 86.8817 7.95652H69.9848V25.2658H86.8817V25.2316ZM97.2093 40.7555C97.2093 35.1656 93.7211 32.269 86.9493 32.269H69.9518V49.6455H86.9493C93.6882 49.6455 97.2093 46.48 97.2093 40.7555Z" fill="#393028"/>
<path d="M119.381 0.51416V57.0878H111.254V0.51416H119.381Z" fill="#393028"/>
<path d="M311.828 57.0878L298.116 19.1022L278.916 57.896L260.634 19.4054L246.005 57.0878H237.473L256.332 10.3811L251.626 0.51416H260.733L279.019 40.9916L294.696 9.6401L291.446 0.51416H300.214L320.633 57.0878H311.828Z" fill="#393028"/>
<path d="M334.652 0.51416V57.0878H326.525V0.51416H334.652Z" fill="#393028"/>
<path d="M184.512 49.0919H178.043V0.51416H142.931V5.36321C142.931 24.9697 138.548 40.6125 130.802 49.0919H125.356V57.0878H184.511V49.0919H184.512ZM150.855 8.40138H169.884V49.0906H140.365C146.843 39.3353 150.451 25.4159 150.855 8.40138Z" fill="#393028"/>
<path d="M206.051 57.5748C200.247 57.5748 194.93 55.6924 191.049 51.829C181.461 42.2839 184.135 24.0721 196.984 11.2485C203.051 5.21076 210.487 1.18419 217.922 -0.0488178C225.88 -1.38052 232.926 0.536215 237.753 5.34092C247.341 14.886 244.666 33.0978 231.818 45.9213C224.153 53.551 214.563 57.5763 206.051 57.5763V57.5748ZM222.751 7.64387C221.643 7.64387 220.501 7.74114 219.327 7.93566C213.555 8.90978 207.651 12.1239 202.792 16.993C193.268 26.4722 190.529 39.815 196.856 46.1144C203.183 52.4124 216.556 49.6861 226.112 40.2054C235.633 30.7262 238.375 17.3835 232.046 11.0854C229.797 8.8454 226.568 7.64387 222.785 7.64387H222.751Z" fill="#393028"/>
</g>
<defs>
<clipPath id="clip0_2600_18979">
<rect width="335" height="58" fill="white"/>
</clipPath>
</defs>
</svg>
