<svg width="934" height="164" viewBox="0 0 934 164" fill="none" xmlns="http://www.w3.org/2000/svg">
<g clip-path="url(#clip0_942_1230)">
<path d="M81.4366 0C116.581 0 146.058 21.5326 156.448 54.393H131.317C122.247 34.9383 105.243 21.7171 81.4366 21.7171C48.7488 21.7171 23.8065 47.7824 23.8065 81.5897C23.8065 115.396 48.7488 141.462 81.4366 141.462C105.243 141.462 122.247 128.337 131.317 108.786H156.448C146.058 141.65 116.581 163.179 81.4366 163.179C35.3326 163.183 0 127.583 0 81.5897C0 35.5961 35.3326 0 81.4366 0Z" fill="#ECE9E2"/>
<path d="M295.206 116.423C295.206 141.827 276.786 161.281 244.002 161.281H172.771V2.63104H243.72C275.273 2.63104 292.943 21.4239 292.943 45.6922C292.943 60.2373 286.802 72.7003 272.724 80.3496C287.934 88.2841 295.21 100.936 295.21 116.423H295.206ZM242.585 71.9463C260.724 71.9463 269.983 62.8807 269.983 46.8273C269.983 30.7742 260.724 23.5017 242.585 23.5017H195.441V72.0424H242.585V71.9463ZM271.4 115.48C271.4 99.8045 261.667 91.6815 242.774 91.6815H195.349V140.41H242.774C261.575 140.41 271.4 131.533 271.4 115.48Z" fill="#ECE9E2"/>
<path d="M333.259 2.63104V161.281H310.584V2.63104H333.259Z" fill="#ECE9E2"/>
<path d="M870.202 160.404L831.944 53.8807L778.374 162.67L727.365 54.7309L686.551 160.404H662.744L715.363 29.4239L702.232 1.75403H727.643L778.663 115.265L822.401 27.346L813.334 1.75403H837.798L894.769 160.404H870.202Z" fill="#ECE9E2"/>
<path d="M933.883 2.63104V161.281H911.209V2.63104H933.883Z" fill="#ECE9E2"/>
<path d="M514.978 138.858H496.931V2.63104H398.964V16.2293C398.964 71.212 386.735 115.079 365.124 138.858H349.93V161.281H514.974V138.858H514.978ZM421.072 24.7493H474.164V138.854H391.804C409.879 111.497 419.945 72.4632 421.072 24.7493Z" fill="#ECE9E2"/>
<path d="M575.076 163.628C558.882 163.628 544.046 158.35 533.219 147.515C506.467 120.748 513.928 69.6766 549.777 33.7152C566.703 16.7836 587.452 5.49182 608.196 2.03409C630.399 -1.70041 650.058 3.67471 663.525 17.1486C690.278 43.9159 682.814 94.9876 646.967 130.949C625.582 152.345 598.824 163.633 575.076 163.633V163.628ZM621.669 23.6068C618.579 23.6068 615.392 23.8795 612.115 24.425C596.012 27.1568 579.54 36.1701 565.982 49.8245C539.41 76.4074 531.766 113.825 549.419 131.49C567.072 149.152 604.384 141.506 631.046 114.919C657.612 88.3369 665.263 50.9196 647.604 33.2579C641.327 26.9762 632.319 23.6068 621.765 23.6068H621.669Z" fill="#ECE9E2"/>
</g>
<defs>
<clipPath id="clip0_942_1230">
<rect width="934" height="164" fill="white"/>
</clipPath>
</defs>
</svg>
